<?xml version="1.0" encoding="UTF-8" standalone="no"?>
<svg xmlns:xlink="http://www.w3.org/1999/xlink" height="129.5px" width="248.8px" xmlns="http://www.w3.org/2000/svg">
  <g transform="matrix(1.0, 0.0, 0.0, 1.0, 9.65, 28.85)">
    <path d="M-2.65 69.55 Q-6.65 69.45 -8.5 65.85 L-8.9 65.2 -2.7 62.4 -4.8 59.7 -3.5 57.05 4.25 55.1 3.6 49.95 6.8 47.9 Q9.0 49.25 11.2 47.9 L12.05 47.3 Q9.5 42.8 13.3 38.9 13.9 38.3 14.65 37.9 L15.4 37.4 28.95 42.25 30.0 39.0 29.15 38.65 28.9 35.55 Q26.3 34.1 26.65 31.05 31.55 23.85 37.95 26.25 40.6 25.15 43.05 26.5 L44.2 23.8 40.45 19.3 41.5 18.9 Q39.3 16.85 39.3 13.9 L40.85 11.65 42.7 11.35 43.85 7.55 40.15 1.45 Q44.5 -1.85 49.05 1.25 L50.05 2.2 50.75 3.4 55.0 3.7 55.85 5.55 Q59.35 4.65 62.55 6.25 L66.55 2.75 67.15 2.7 67.35 1.9 Q74.9 -1.1 82.45 1.85 L84.05 -1.0 83.1 -1.5 85.05 -6.65 86.95 -7.85 Q84.8 -13.6 90.1 -16.1 L90.95 -16.3 Q91.25 -19.8 94.95 -19.8 97.25 -16.8 101.1 -17.2 L102.3 -16.35 106.45 -19.95 109.9 -20.35 110.5 -23.15 109.9 -23.9 Q111.5 -30.4 118.15 -28.4 123.9 -29.7 125.9 -23.65 L126.3 -22.55 Q130.0 -20.7 134.0 -21.85 L135.55 -18.85 136.55 -18.45 Q138.95 -14.4 145.2 -15.45 146.85 -15.5 148.3 -14.75 L150.3 -13.3 152.15 -11.05 158.3 -11.25 Q157.8 -12.7 157.75 -13.95 157.65 -16.85 160.1 -19.2 163.1 -22.0 166.95 -19.75 L172.7 -16.1 171.25 -11.65 176.35 -9.5 184.0 -10.95 184.95 -9.0 Q188.5 -9.8 190.3 -6.75 L192.75 -2.9 192.8 0.1 196.2 4.2 201.3 2.1 Q205.0 7.7 202.65 14.05 L201.45 16.5 204.3 18.7 204.15 20.65 Q206.5 23.55 210.25 22.45 L211.4 20.8 Q215.0 20.8 216.5 24.2 L215.2 25.05 217.05 26.35 Q218.0 29.1 215.95 31.2 L214.7 32.3 216.5 33.85 217.15 37.55 Q221.0 39.6 225.6 38.25 L227.5 38.2 Q230.3 38.85 232.3 41.05 L231.35 44.55 233.85 45.2 234.4 46.45 228.95 46.65 228.0 47.2 225.0 44.4 Q221.25 44.85 217.75 43.25 215.35 42.15 212.6 42.35 210.4 42.5 208.5 43.6 L215.65 42.95 217.15 48.15 219.0 48.7 219.3 52.7 212.55 54.4 215.85 55.1 216.6 56.8 215.45 57.35 216.8 57.3 Q217.9 59.75 216.7 62.15 215.55 64.4 213.1 65.25 L211.2 64.1 209.1 64.1 Q207.9 62.1 208.2 59.8 208.25 58.6 208.9 57.6 L198.25 67.4 Q198.7 64.45 195.95 63.3 195.35 62.95 194.65 62.75 L193.4 61.15 Q190.9 60.65 189.7 58.7 188.15 56.05 189.9 53.3 L188.45 48.45 194.5 44.35 187.95 45.65 187.55 44.45 196.5 38.6 Q193.75 38.65 191.15 39.35 181.65 41.7 173.85 47.95 L173.4 54.5 Q166.95 54.2 161.05 56.95 156.75 58.9 153.5 62.15 L167.55 58.6 168.0 59.35 166.25 59.85 Q159.0 62.15 153.35 67.3 159.15 62.8 165.95 64.7 173.7 66.8 174.85 74.45 L170.7 74.25 169.95 76.05 170.75 76.55 170.25 78.25 168.65 78.75 168.2 77.25 169.5 76.35 168.95 74.95 167.45 75.35 167.25 76.1 163.9 76.5 163.45 77.4 160.65 77.7 161.05 79.05 163.2 78.5 163.95 80.75 161.25 81.65 Q155.25 83.6 148.95 83.65 L146.0 83.1 145.4 82.4 145.95 79.25 144.7 78.55 143.95 74.15 135.4 68.85 135.5 72.1 Q134.6 70.25 132.75 69.4 L132.1 69.2 131.5 68.95 130.7 68.9 130.0 70.05 130.25 70.65 Q131.1 72.75 130.0 74.75 L129.7 75.35 129.4 75.5 129.05 75.8 128.75 72.95 Q128.4 72.65 127.9 72.7 L127.1 72.7 Q125.15 72.6 124.55 74.25 L124.4 74.6 124.5 75.0 124.6 75.4 122.55 75.4 122.0 76.3 117.75 75.15 116.25 78.65 Q114.5 77.7 112.65 78.05 L112.3 78.3 111.95 78.45 111.5 78.55 Q109.5 78.25 108.45 76.45 L108.15 75.9 108.05 75.25 107.9 74.55 98.6 71.0 Q99.6 63.45 105.85 59.05 L112.4 54.65 112.45 53.3 112.95 52.3 Q113.8 51.3 115.15 51.55 L116.1 51.7 116.5 51.85 116.85 52.05 118.85 51.75 119.1 52.5 132.85 55.2 Q132.95 56.45 133.5 57.4 136.0 62.3 138.9 67.0 L138.25 68.05 139.05 67.65 141.1 66.15 Q142.75 65.05 144.05 63.45 146.8 60.2 147.9 56.2 149.0 52.0 148.2 48.25 L148.05 48.55 Q147.75 48.9 147.4 48.9 L146.8 48.65 Q146.45 48.45 146.4 48.1 146.35 47.75 146.7 47.4 146.9 47.1 147.25 47.1 L147.95 47.3 148.0 47.35 147.5 45.85 147.75 45.0 145.95 40.8 Q151.05 36.2 157.7 33.6 L160.8 32.05 160.8 33.25 160.05 33.85 160.0 35.35 161.8 35.25 162.4 33.35 163.3 32.7 165.0 33.85 165.35 31.95 164.05 31.65 168.45 30.25 168.9 30.85 170.35 30.75 170.75 30.0 176.25 29.9 176.3 31.55 178.2 31.5 178.1 29.7 179.7 28.8 Q181.25 30.45 183.5 30.45 185.05 30.65 186.25 29.65 L186.7 29.3 187.15 28.85 Q183.5 24.8 178.95 21.9 175.5 19.65 171.4 18.65 157.65 15.35 145.65 23.2 L145.0 22.05 136.0 24.55 136.2 23.65 136.8 21.15 Q137.3 19.1 138.35 17.45 140.3 14.35 143.8 13.2 149.5 11.3 155.35 12.7 152.7 9.35 148.8 7.25 140.55 2.65 131.5 6.1 L129.55 5.4 Q129.35 2.55 130.95 0.2 133.45 -3.25 137.75 -2.8 L138.9 -2.7 143.3 1.55 147.9 -2.25 157.25 -1.35 Q157.45 -3.6 155.65 -5.0 155.0 -5.6 154.2 -5.9 L153.7 -6.05 153.15 -6.15 151.45 -7.9 146.05 -6.2 Q140.55 -8.5 135.75 -11.95 L133.1 -13.9 Q125.15 -20.4 115.3 -16.65 L120.5 -17.6 Q125.35 -13.8 131.2 -11.85 L132.0 -11.6 132.8 -11.4 129.95 -5.35 124.5 -6.3 123.8 -8.05 117.3 -6.55 117.15 -5.85 117.95 -5.05 116.8 -4.05 116.55 -2.05 Q109.25 -4.4 101.5 -3.55 L96.45 -2.85 95.4 -3.3 95.8 -7.5 92.6 -5.25 Q88.95 -2.0 88.2 2.8 L87.9 4.8 71.05 6.3 78.0 7.55 78.3 10.6 72.6 11.8 72.05 12.7 56.65 19.55 Q62.15 17.25 68.2 17.25 L72.35 17.6 Q73.65 19.5 72.7 21.55 L72.5 21.95 72.15 22.3 71.85 22.6 72.5 28.4 69.25 28.2 57.75 30.15 55.45 30.15 54.6 31.3 51.1 32.55 49.85 32.1 43.1 34.6 41.85 42.6 38.75 45.5 39.8 47.9 39.05 49.85 40.45 50.1 40.8 48.75 Q42.85 46.9 45.55 45.75 46.45 45.35 47.45 45.1 L49.5 44.85 Q57.55 41.45 66.0 43.0 75.9 44.85 84.2 50.7 L84.15 48.9 Q84.05 46.05 82.9 43.4 81.65 40.5 78.8 39.1 L80.7 37.0 83.85 36.7 Q86.95 36.65 89.6 37.95 93.25 39.7 95.75 37.65 L95.75 36.8 95.75 36.3 Q95.4 34.9 94.45 33.8 91.55 30.35 87.4 29.05 L86.2 27.05 86.95 24.05 89.35 23.55 91.2 24.2 93.45 23.15 94.0 23.55 Q94.75 24.25 95.6 24.65 97.5 25.65 99.6 25.0 L100.25 23.0 103.65 23.3 104.2 22.35 105.3 22.3 105.75 21.6 107.75 21.55 105.75 23.3 107.4 23.85 109.05 24.15 Q110.95 24.6 112.55 25.6 115.3 27.3 116.35 30.25 114.9 30.6 113.7 31.4 112.3 32.3 111.6 33.7 L97.3 39.9 Q100.5 38.9 104.0 38.7 108.8 37.85 112.05 41.25 L105.25 42.2 105.35 43.45 100.05 43.5 91.7 49.05 92.4 50.45 91.95 51.1 89.2 50.6 89.1 52.55 87.65 53.7 Q83.45 56.95 82.8 62.05 75.85 60.9 69.25 62.8 L71.75 63.1 Q76.65 63.9 80.9 66.9 L71.2 66.4 70.85 68.4 77.2 72.0 75.1 78.35 70.85 79.4 69.6 82.2 65.45 83.2 Q65.95 80.25 60.65 79.7 L59.9 80.3 Q57.55 82.75 55.0 84.85 53.5 86.05 51.8 85.55 L52.8 85.0 54.5 83.55 55.0 82.65 Q55.3 81.3 54.35 80.65 53.7 80.15 52.95 80.2 51.8 80.2 50.75 80.7 49.7 81.1 48.9 81.9 L46.0 82.4 46.7 80.75 48.95 79.8 49.8 79.2 Q50.4 78.65 50.3 77.8 L48.75 77.05 46.85 77.9 48.45 76.15 50.4 71.95 48.15 69.85 50.35 63.1 48.85 63.15 43.6 57.15 37.1 57.0 41.85 61.2 41.6 63.65 39.8 65.1 40.95 66.2 40.05 67.65 38.4 66.7 38.75 65.45 37.95 65.95 35.6 65.9 30.9 61.25 31.8 59.45 28.3 59.35 28.35 60.35 29.15 60.65 27.8 60.7 24.6 58.9 24.2 59.35 Q8.65 58.4 -2.85 68.75 L-2.65 69.55 M4.8 99.25 L4.0 99.4 Q2.3 99.65 1.15 98.35 L0.45 97.55 0.3 97.25 0.1 96.8 2.45 95.15 -0.1 94.6 Q-3.45 93.45 -5.95 91.1 -7.6 89.6 -8.8 87.7 L-6.35 87.35 -9.65 84.45 -8.15 82.85 Q-6.7 81.3 -4.7 80.5 L-2.65 79.8 -6.1 76.55 -1.05 74.65 -1.4 74.1 3.5 74.45 Q4.75 73.5 6.3 73.0 11.05 71.35 15.0 74.6 L14.8 76.0 17.35 81.55 16.15 82.15 15.1 84.5 Q13.3 85.4 11.25 84.9 10.25 84.75 9.35 84.0 L-3.9 88.15 -0.25 88.4 Q5.4 89.0 9.75 92.55 L9.6 94.05 11.8 96.3 11.35 97.2 4.8 99.25 M121.0 -5.45 L120.8 -4.7 Q120.55 -4.35 120.1 -4.35 119.65 -4.3 119.3 -4.55 118.95 -4.8 118.9 -5.25 118.85 -5.65 119.15 -5.95 119.45 -6.3 119.9 -6.35 L120.65 -6.1 121.0 -5.45 M125.95 -5.1 L126.85 -4.85 127.25 -3.95 Q127.3 -3.45 127.0 -3.15 126.7 -2.8 126.2 -2.75 125.7 -2.65 125.35 -2.95 124.9 -3.3 124.85 -3.8 124.8 -4.3 125.2 -4.65 125.45 -5.05 125.95 -5.1 M124.7 -3.8 L124.55 -3.05 123.8 -2.65 Q123.4 -2.6 123.1 -2.9 122.75 -3.15 122.7 -3.55 122.65 -3.95 123.0 -4.3 123.25 -4.6 123.65 -4.65 L124.45 -4.45 124.7 -3.8 M206.25 29.95 L205.95 26.65 204.1 24.6 Q200.85 23.5 198.55 20.4 197.35 18.65 195.5 17.6 L195.1 16.5 195.9 14.1 Q197.15 13.75 197.8 12.7 199.4 10.4 197.7 8.15 L197.35 10.3 195.15 11.1 184.75 -3.4 165.1 -5.25 161.35 2.55 162.7 1.25 164.6 1.3 164.65 0.1 Q177.3 -1.45 187.95 5.55 L187.85 7.3 Q177.75 7.1 168.8 11.65 175.75 9.8 182.7 11.95 L180.8 12.05 180.75 14.0 182.1 14.25 183.05 12.95 183.6 14.6 185.2 14.65 185.25 13.2 187.05 15.65 188.4 15.35 188.6 16.0 190.3 15.6 191.15 17.3 190.75 18.6 192.05 20.25 188.55 24.95 187.25 25.15 Q194.4 25.0 199.0 30.5 L198.5 36.25 Q200.6 35.9 202.2 37.2 203.45 38.35 203.7 39.95 L203.75 40.65 204.6 40.8 Q207.35 37.75 207.25 33.65 207.2 31.75 206.25 29.95 M166.6 31.7 Q166.25 32.1 166.25 32.6 166.3 33.15 166.75 33.55 L167.7 33.75 168.6 33.35 Q169.0 32.95 168.9 32.4 L168.45 31.5 167.45 31.2 Q166.95 31.25 166.6 31.7 M174.5 30.9 Q174.15 30.6 173.75 30.65 173.3 30.7 173.0 31.05 172.75 31.35 172.75 31.8 172.8 32.25 173.15 32.55 L173.95 32.8 174.65 32.4 174.85 31.6 174.5 30.9 M168.45 71.0 L167.2 71.35 167.75 73.0 170.4 73.65 168.45 71.0 M165.9 70.5 L165.05 70.25 Q164.55 70.35 164.2 70.6 163.8 70.9 163.85 71.3 L164.35 71.9 Q164.7 72.2 165.2 72.1 L166.05 71.8 Q166.4 71.45 166.35 71.1 L165.9 70.5 M125.6 49.05 L128.0 51.95 126.9 52.05 126.6 51.05 125.0 51.4 124.75 49.45 125.6 49.05 M107.75 21.55 L107.75 21.45 Q107.7 21.05 108.05 20.75 108.4 20.4 108.95 20.35 L109.85 20.55 110.3 21.25 Q110.35 21.65 110.0 22.05 L109.1 22.35 108.2 22.2 107.75 21.55 M111.3 22.5 Q111.5 22.25 111.8 22.25 L112.3 22.4 112.55 22.9 112.4 23.4 111.95 23.65 111.4 23.5 111.1 23.0 Q111.05 22.7 111.3 22.5 M118.45 50.45 L118.7 50.9 118.55 51.45 118.1 51.7 117.55 51.55 117.25 51.1 117.45 50.55 Q117.65 50.35 117.95 50.3 L118.45 50.45 M83.8 55.6 L81.65 55.45 81.1 57.55 80.85 55.9 80.1 55.15 78.65 56.6 79.3 58.6 78.75 59.25 78.85 60.55 80.2 60.95 84.0 57.6 83.8 55.6 M86.75 53.95 L86.85 52.4 88.5 51.6 88.35 50.2 85.6 50.25 85.15 51.15 84.3 51.45 84.5 53.85 86.75 53.95 M132.15 52.05 L131.95 52.45 131.45 52.65 130.9 52.55 130.6 52.25 130.8 51.8 131.3 51.6 131.85 51.7 132.15 52.05 M159.3 79.2 L158.75 79.0 158.25 79.3 158.1 79.85 158.3 80.35 158.9 80.5 159.35 80.25 159.6 79.7 159.3 79.2 M69.1 15.15 Q69.3 14.95 69.6 14.9 L70.15 15.05 70.45 15.4 70.25 15.85 69.75 16.05 69.2 15.95 68.9 15.6 69.1 15.15 M74.6 13.55 L74.95 14.25 74.75 15.0 74.05 15.35 73.4 15.2 Q73.0 14.9 72.95 14.45 72.9 14.05 73.25 13.75 73.45 13.4 73.9 13.35 L74.6 13.55 M72.7 14.55 L73.1 15.2 72.85 15.85 72.25 16.2 71.55 16.0 71.2 15.4 71.4 14.7 Q71.65 14.4 72.0 14.4 L72.7 14.55 M61.45 59.05 Q60.8 59.9 60.85 60.95 61.0 62.05 61.8 62.8 62.6 63.5 63.75 63.35 64.8 63.25 65.5 62.45 66.25 61.6 66.1 60.5 66.05 59.45 65.15 58.7 64.3 58.0 63.25 58.1 62.1 58.2 61.45 59.05 M78.1 53.9 L77.2 53.75 Q76.7 53.8 76.3 54.05 75.95 54.3 76.0 54.65 76.05 55.0 76.45 55.2 L77.35 55.4 78.2 55.05 78.5 54.4 78.1 53.9 M34.15 59.2 Q33.55 59.7 33.6 60.45 33.65 61.15 34.4 61.55 35.05 62.05 35.9 61.95 36.8 61.9 37.4 61.3 37.95 60.75 37.85 60.05 37.8 59.35 37.15 58.95 36.45 58.5 35.55 58.6 34.7 58.7 34.15 59.2 M76.05 49.45 Q74.9 49.3 73.85 49.45 73.25 49.55 73.05 50.0 71.95 52.95 73.7 56.1 L74.85 56.55 73.45 57.35 70.0 55.5 Q68.45 57.8 70.1 59.85 L74.45 60.05 77.45 59.0 77.25 56.45 75.45 55.55 75.55 54.25 76.0 53.8 Q77.7 51.65 76.05 49.45 M78.0 70.7 L78.55 70.8 78.8 71.3 78.6 71.85 78.1 72.1 77.55 71.9 77.35 71.4 Q77.3 71.1 77.5 70.9 77.7 70.65 78.0 70.7 M78.45 73.35 L78.9 73.1 Q79.2 73.1 79.45 73.25 L79.7 73.75 79.5 74.25 79.05 74.5 78.5 74.35 Q78.2 74.15 78.25 73.9 78.2 73.6 78.45 73.35 M43.9 63.9 L42.95 64.6 44.0 65.5 43.1 68.05 43.05 66.45 42.6 66.05 42.95 64.6 42.2 63.05 43.85 62.9 43.9 63.9 M48.45 71.1 L48.25 71.55 Q48.0 71.8 47.6 71.85 L46.95 71.7 Q46.65 71.6 46.65 71.3 L46.85 70.8 Q47.05 70.6 47.45 70.55 L48.15 70.65 48.45 71.1 M56.0 79.75 L56.7 79.9 57.3 79.65 57.55 79.1 57.2 78.65 56.55 78.5 Q56.15 78.5 55.9 78.75 55.65 78.95 55.65 79.25 L56.0 79.75 M46.15 76.65 L45.5 76.55 45.2 75.9 Q45.15 75.6 45.4 75.35 45.6 75.05 45.95 75.0 L46.65 75.2 46.9 75.7 46.75 76.4 46.15 76.65 M42.85 77.75 Q43.0 77.6 43.3 77.55 L43.8 77.65 44.05 77.9 43.9 78.3 43.4 78.5 42.95 78.4 42.7 78.0 42.85 77.75 M78.85 75.4 L78.7 75.95 78.2 76.2 77.65 76.05 77.35 75.5 77.5 74.95 Q77.7 74.7 78.05 74.7 L78.55 74.85 78.85 75.4 M72.3 84.2 L71.5 84.65 Q71.0 84.7 70.65 84.4 70.3 84.1 70.3 83.6 70.25 83.15 70.5 82.8 70.8 82.4 71.3 82.35 71.75 82.3 72.15 82.6 72.55 82.95 72.6 83.4 L72.3 84.2 M71.4 85.45 Q71.7 85.65 71.65 85.95 L71.5 86.5 71.0 86.8 70.5 86.65 70.2 86.05 70.4 85.6 Q70.6 85.3 70.9 85.25 L71.4 85.45 M65.35 84.75 Q65.35 84.5 65.5 84.3 L66.0 84.1 66.4 84.25 66.6 84.65 66.5 85.15 66.1 85.35 65.6 85.2 Q65.4 85.05 65.35 84.75 M67.8 85.8 L68.65 86.0 69.0 86.6 68.75 87.35 67.95 87.65 67.15 87.5 Q66.75 87.2 66.7 86.8 66.65 86.45 67.05 86.1 L67.8 85.8" fill="#6cbf48" fill-rule="evenodd" stroke="none"/>
    <path d="M234.4 46.45 L235.05 48.0 238.5 50.0 233.95 55.1 239.15 57.3 Q237.7 59.3 236.45 62.8 L236.05 63.9 235.5 64.05 233.8 60.25 234.7 59.9 234.3 58.75 231.55 58.0 232.7 56.35 Q232.25 53.5 230.55 51.3 228.8 49.0 226.25 47.7 L219.95 48.4 228.8 52.35 227.95 55.35 229.25 57.4 227.5 59.9 Q225.25 58.15 222.5 57.2 219.65 56.1 216.6 56.8 L215.85 55.1 212.55 54.4 219.3 52.7 219.0 48.7 217.15 48.15 215.65 42.95 208.5 43.6 Q210.4 42.5 212.6 42.35 215.35 42.15 217.75 43.25 221.25 44.85 225.0 44.4 L228.0 47.2 228.95 46.65 234.4 46.45 M-1.4 74.1 L1.4 72.0 1.35 69.55 -0.75 68.85 -2.65 69.55 -2.85 68.75 Q8.65 58.4 24.2 59.35 L24.6 58.9 27.8 60.7 29.15 60.65 28.35 60.35 28.3 59.35 31.8 59.45 30.9 61.25 35.6 65.9 37.95 65.95 38.75 65.45 38.4 66.7 40.05 67.65 40.95 66.2 39.8 65.1 41.6 63.65 41.85 61.2 37.1 57.0 43.6 57.15 48.85 63.15 50.35 63.1 48.15 69.85 50.4 71.95 48.45 76.15 46.85 77.9 48.75 77.05 50.3 77.8 Q50.4 78.65 49.8 79.2 L48.95 79.8 46.7 80.75 46.0 82.4 48.9 81.9 Q49.7 81.1 50.75 80.7 51.8 80.2 52.95 80.2 53.7 80.15 54.35 80.65 55.3 81.3 55.0 82.65 L54.5 83.55 52.8 85.0 51.8 85.55 Q53.5 86.05 55.0 84.85 57.55 82.75 59.9 80.3 L60.65 79.7 Q65.95 80.25 65.45 83.2 L69.6 82.2 70.85 79.4 75.1 78.35 77.2 72.0 70.85 68.4 71.2 66.4 80.9 66.9 83.9 70.1 83.55 71.25 84.8 73.3 84.1 75.3 82.7 76.0 84.65 79.0 75.4 83.6 76.4 84.85 Q77.05 85.75 76.95 86.8 L76.85 87.45 76.35 88.9 Q76.0 89.75 75.2 90.25 L74.6 90.25 Q74.15 90.2 73.8 89.95 67.25 93.6 59.75 92.25 54.3 91.1 49.5 88.6 L49.05 87.1 46.25 86.35 Q43.75 85.75 41.8 87.45 L39.1 87.45 37.45 84.75 34.9 84.2 Q36.4 84.05 37.55 83.35 L39.15 82.1 39.7 81.6 Q41.05 80.15 41.2 78.05 L40.15 76.25 Q40.65 74.75 39.85 73.5 38.85 72.05 37.25 71.5 L36.1 71.4 34.85 71.5 Q33.1 67.95 29.5 66.45 L26.55 65.5 24.85 65.4 24.0 66.65 Q17.0 62.25 9.8 66.2 7.45 67.5 5.3 69.2 13.1 66.2 20.0 70.6 23.7 72.95 26.75 76.4 L25.0 79.4 25.4 81.6 19.5 86.35 9.25 86.4 9.0 88.75 15.7 90.3 Q16.25 90.2 16.7 90.6 L18.0 91.7 18.45 92.35 13.1 94.6 14.2 95.45 11.8 96.3 9.6 94.05 9.75 92.55 Q5.4 89.0 -0.25 88.4 L-3.9 88.15 9.35 84.0 Q10.25 84.75 11.25 84.9 13.3 85.4 15.1 84.5 L16.15 82.15 17.35 81.55 14.8 76.0 15.0 74.6 Q11.05 71.35 6.3 73.0 4.75 73.5 3.5 74.45 L-1.4 74.1 M82.8 62.05 Q83.45 56.95 87.65 53.7 L89.1 52.55 89.2 50.6 91.95 51.1 92.4 50.45 91.7 49.05 100.05 43.5 105.35 43.45 105.25 42.2 112.05 41.25 Q108.8 37.85 104.0 38.7 100.5 38.9 97.3 39.9 L111.6 33.7 Q112.3 32.3 113.7 31.4 114.9 30.6 116.35 30.25 115.3 27.3 112.55 25.6 110.95 24.6 109.05 24.15 L107.4 23.85 105.75 23.3 107.75 21.55 105.75 21.6 105.3 22.3 104.2 22.35 103.65 23.3 100.25 23.0 99.6 25.0 Q97.5 25.65 95.6 24.65 94.75 24.25 94.0 23.55 L93.45 23.15 91.2 24.2 89.35 23.55 86.95 24.05 86.2 27.05 87.4 29.05 Q91.55 30.35 94.45 33.8 95.4 34.9 95.75 36.3 L95.75 36.8 95.75 37.65 Q93.25 39.7 89.6 37.95 86.95 36.65 83.85 36.7 L80.7 37.0 78.8 39.1 Q81.65 40.5 82.9 43.4 84.05 46.05 84.15 48.9 L84.2 50.7 Q75.9 44.85 66.0 43.0 57.55 41.45 49.5 44.85 L48.65 39.1 Q62.85 36.75 75.15 43.65 L79.45 46.25 Q78.45 43.95 76.85 42.15 74.0 39.05 70.65 36.65 L76.75 32.65 89.25 36.4 87.8 34.5 Q86.7 33.25 85.1 32.7 L80.45 31.2 83.1 20.4 85.55 20.4 88.0 16.9 110.8 15.8 111.6 16.75 115.15 17.05 115.85 17.7 118.05 18.3 Q119.35 18.75 120.1 19.7 121.45 21.6 121.85 23.85 L124.65 24.45 126.75 32.8 Q122.75 32.2 118.85 33.3 115.6 34.3 112.85 36.05 L114.1 36.4 115.0 35.25 128.85 37.8 129.3 38.85 133.3 40.35 Q135.95 43.45 137.45 47.5 138.65 50.75 138.85 54.2 L141.65 52.65 145.55 45.7 142.65 38.4 Q153.55 26.95 169.25 25.9 L174.15 25.9 Q159.1 19.9 144.4 25.7 141.4 26.9 139.1 29.1 L139.5 30.05 131.05 32.0 131.4 30.15 132.6 29.4 131.35 23.4 132.6 21.25 131.75 17.6 133.65 14.05 148.05 9.5 Q141.3 7.25 134.25 9.2 130.1 10.3 126.55 12.75 L124.35 7.25 121.9 6.05 120.05 3.6 Q119.3 2.7 118.05 2.45 L114.25 1.8 113.0 -0.95 Q100.7 -0.85 89.75 5.3 86.0 7.3 84.5 11.45 L81.85 12.3 81.1 13.5 80.85 14.05 80.7 14.6 80.75 15.85 81.15 17.95 77.1 20.05 77.3 22.0 76.0 22.35 76.45 28.15 70.1 30.5 69.55 31.75 62.0 32.8 57.75 30.15 69.25 28.2 72.5 28.4 71.85 22.6 72.15 22.3 72.5 21.95 72.7 21.55 Q73.65 19.5 72.35 17.6 L68.2 17.25 Q62.15 17.25 56.65 19.55 L72.05 12.7 72.6 11.8 78.3 10.6 78.0 7.55 71.05 6.3 87.9 4.8 88.2 2.8 Q88.95 -2.0 92.6 -5.25 L95.8 -7.5 95.4 -3.3 96.45 -2.85 101.5 -3.55 Q109.25 -4.4 116.55 -2.05 L116.8 -4.05 117.95 -5.05 117.15 -5.85 117.3 -6.55 123.8 -8.05 124.5 -6.3 129.95 -5.35 132.8 -11.4 132.0 -11.6 131.2 -11.85 Q125.35 -13.8 120.5 -17.6 L115.3 -16.65 Q125.15 -20.4 133.1 -13.9 L135.75 -11.95 Q140.55 -8.5 146.05 -6.2 L151.45 -7.9 153.15 -6.15 153.7 -6.05 154.2 -5.9 Q155.0 -5.6 155.65 -5.0 157.45 -3.6 157.25 -1.35 L147.9 -2.25 143.3 1.55 138.9 -2.7 137.75 -2.8 Q133.45 -3.25 130.95 0.2 129.35 2.55 129.55 5.4 L131.5 6.1 Q140.55 2.65 148.8 7.25 152.7 9.35 155.35 12.7 149.5 11.3 143.8 13.2 140.3 14.35 138.35 17.45 137.3 19.1 136.8 21.15 L136.2 23.65 136.0 24.55 145.0 22.05 145.65 23.2 Q157.65 15.35 171.4 18.65 175.5 19.65 178.95 21.9 183.5 24.8 187.15 28.85 L186.7 29.3 186.25 29.65 Q185.05 30.65 183.5 30.45 181.25 30.45 179.7 28.8 L178.1 29.7 178.2 31.5 176.3 31.55 176.25 29.9 170.75 30.0 170.35 30.75 168.9 30.85 168.45 30.25 164.05 31.65 165.35 31.95 165.0 33.85 163.3 32.7 162.4 33.35 161.8 35.25 160.0 35.35 160.05 33.85 160.8 33.25 160.8 32.05 157.7 33.6 Q151.05 36.2 145.95 40.8 L147.75 45.0 147.5 45.85 148.0 47.35 147.95 47.3 147.25 47.1 Q146.9 47.1 146.7 47.4 146.35 47.75 146.4 48.1 146.45 48.45 146.8 48.65 L147.4 48.9 Q147.75 48.9 148.05 48.55 L148.2 48.25 Q149.0 52.0 147.9 56.2 146.8 60.2 144.05 63.45 142.75 65.05 141.1 66.15 L139.05 67.65 138.25 68.05 138.9 67.0 Q136.0 62.3 133.5 57.4 132.95 56.45 132.85 55.2 L119.1 52.5 118.85 51.75 116.85 52.05 116.5 51.85 116.1 51.7 115.15 51.55 Q113.8 51.3 112.95 52.3 L112.45 53.3 112.4 54.65 105.85 59.05 Q99.6 63.45 98.6 71.0 L107.9 74.55 108.05 75.25 108.15 75.9 108.45 76.45 Q109.5 78.25 111.5 78.55 L111.95 78.45 112.3 78.3 112.65 78.05 Q114.5 77.7 116.25 78.65 L117.75 75.15 122.0 76.3 122.55 75.4 124.6 75.4 124.5 75.0 124.4 74.6 124.55 74.25 Q125.15 72.6 127.1 72.7 L127.9 72.7 Q128.4 72.65 128.75 72.95 L129.05 75.8 129.4 75.5 129.7 75.35 130.0 74.75 Q131.1 72.75 130.25 70.65 L130.0 70.05 130.7 68.9 131.5 68.95 132.1 69.2 132.75 69.4 Q134.6 70.25 135.5 72.1 L136.8 75.15 133.65 81.3 132.15 80.95 131.6 82.55 129.1 83.75 Q127.25 84.7 125.25 84.4 L123.4 84.05 Q120.45 85.9 116.95 85.85 112.4 86.15 109.85 82.75 L105.3 83.05 104.85 81.8 100.75 82.0 Q97.0 81.3 94.25 78.65 L95.55 75.85 91.95 75.55 91.8 69.8 93.25 69.3 92.65 67.55 95.75 65.75 95.7 61.6 107.25 55.9 107.25 52.6 117.4 47.1 116.5 46.0 107.25 47.35 106.7 48.7 103.35 49.8 Q91.85 54.05 89.35 66.2 L87.3 64.75 84.95 64.6 82.8 62.05 M148.95 83.65 Q155.25 83.6 161.25 81.65 L163.95 80.75 163.2 78.5 161.05 79.05 160.65 77.7 163.45 77.4 163.9 76.5 167.25 76.1 167.45 75.35 168.95 74.95 169.5 76.35 168.2 77.25 168.65 78.75 170.25 78.25 170.75 76.55 169.95 76.05 170.7 74.25 174.85 74.45 Q173.7 66.8 165.95 64.7 159.15 62.8 153.35 67.3 159.0 62.15 166.25 59.85 L168.0 59.35 172.75 60.15 178.35 66.7 179.8 70.55 181.55 71.2 179.4 76.8 180.0 78.2 Q173.3 84.2 164.75 86.25 161.7 87.05 158.55 86.9 L157.85 87.45 148.95 83.65 M173.4 54.5 L173.85 47.95 Q181.65 41.7 191.15 39.35 193.75 38.65 196.5 38.6 L187.55 44.45 187.95 45.65 183.25 46.5 181.9 47.9 181.8 49.6 Q181.25 50.5 180.85 51.45 179.6 54.2 181.05 56.95 L173.4 54.5 M188.45 48.45 L189.9 53.3 Q188.15 56.05 189.7 58.7 190.9 60.65 193.4 61.15 L194.65 62.75 Q195.35 62.95 195.95 63.3 198.7 64.45 198.25 67.4 L208.9 57.6 Q208.25 58.6 208.2 59.8 207.9 62.1 209.1 64.1 L211.2 64.1 213.1 65.25 Q215.55 64.4 216.7 62.15 217.9 59.75 216.8 57.3 221.5 57.1 223.6 61.4 L223.95 62.25 223.15 63.85 224.8 66.0 223.1 71.85 Q217.45 76.0 211.75 72.9 209.7 71.85 209.65 69.7 L206.35 68.3 205.45 73.7 201.9 74.65 201.7 76.6 Q196.75 78.05 192.15 73.45 L194.25 69.55 191.3 62.4 187.7 61.8 Q186.1 57.5 187.85 53.4 L186.6 53.2 186.15 51.6 188.45 48.45 M188.55 24.95 L192.05 20.25 190.75 18.6 191.15 17.3 190.3 15.6 188.6 16.0 188.4 15.35 187.05 15.65 185.25 13.2 185.2 14.65 183.6 14.6 183.05 12.95 182.1 14.25 180.75 14.0 180.8 12.05 182.7 11.95 Q175.75 9.8 168.8 11.65 177.75 7.1 187.85 7.3 L187.95 5.55 Q177.3 -1.45 164.65 0.1 L164.6 1.3 162.7 1.25 161.35 2.55 165.1 -5.25 184.75 -3.4 195.15 11.1 197.35 10.3 197.7 8.15 Q199.4 10.4 197.8 12.7 197.15 13.75 195.9 14.1 L195.1 16.5 195.5 17.6 Q197.35 18.65 198.55 20.4 200.85 23.5 204.1 24.6 L205.95 26.65 206.25 29.95 Q203.55 30.3 201.65 28.2 L201.0 27.4 200.4 26.4 193.9 23.9 188.55 24.95 M124.7 -3.8 L124.45 -4.45 123.65 -4.65 Q123.25 -4.6 123.0 -4.3 122.65 -3.95 122.7 -3.55 122.75 -3.15 123.1 -2.9 123.4 -2.6 123.8 -2.65 L124.55 -3.05 124.7 -3.8 M125.95 -5.1 Q125.45 -5.05 125.2 -4.65 124.8 -4.3 124.85 -3.8 124.9 -3.3 125.35 -2.95 125.7 -2.65 126.2 -2.75 126.7 -2.8 127.0 -3.15 127.3 -3.45 127.25 -3.95 L126.85 -4.85 125.95 -5.1 M121.0 -5.45 L120.65 -6.1 119.9 -6.35 Q119.45 -6.3 119.15 -5.95 118.85 -5.65 118.9 -5.25 118.95 -4.8 119.3 -4.55 119.65 -4.3 120.1 -4.35 120.55 -4.35 120.8 -4.7 L121.0 -5.45 M174.5 30.9 L174.85 31.6 174.65 32.4 173.95 32.8 173.15 32.55 Q172.8 32.25 172.75 31.8 172.75 31.35 173.0 31.05 173.3 30.7 173.75 30.65 174.15 30.6 174.5 30.9 M166.6 31.7 Q166.95 31.25 167.45 31.2 L168.45 31.5 168.9 32.4 Q169.0 32.95 168.6 33.35 L167.7 33.75 166.75 33.55 Q166.3 33.15 166.25 32.6 166.25 32.1 166.6 31.7 M165.9 70.5 L166.35 71.1 Q166.4 71.45 166.05 71.8 L165.2 72.1 Q164.7 72.2 164.35 71.9 L163.85 71.3 Q163.8 70.9 164.2 70.6 164.55 70.35 165.05 70.25 L165.9 70.5 M168.45 71.0 L170.4 73.65 167.75 73.0 167.2 71.35 168.45 71.0 M111.3 22.5 Q111.05 22.7 111.1 23.0 L111.4 23.5 111.95 23.65 112.4 23.4 112.55 22.9 112.3 22.4 111.8 22.25 Q111.5 22.25 111.3 22.5 M107.75 21.55 L108.2 22.2 109.1 22.35 110.0 22.05 Q110.35 21.65 110.3 21.25 L109.85 20.55 108.95 20.35 Q108.4 20.4 108.05 20.75 107.7 21.05 107.75 21.45 L107.75 21.55 M125.6 49.05 L124.75 49.45 125.0 51.4 126.6 51.05 126.9 52.05 128.0 51.95 125.6 49.05 M118.45 50.45 L117.95 50.3 Q117.65 50.35 117.45 50.55 L117.25 51.1 117.55 51.55 118.1 51.7 118.55 51.45 118.7 50.9 118.45 50.45 M86.75 53.95 L84.5 53.85 84.3 51.45 85.15 51.15 85.6 50.25 88.35 50.2 88.5 51.6 86.85 52.4 86.75 53.95 M83.8 55.6 L84.0 57.6 80.2 60.95 78.85 60.55 78.75 59.25 79.3 58.6 78.65 56.6 80.1 55.15 80.85 55.9 81.1 57.55 81.65 55.45 83.8 55.6 M132.15 52.05 L131.85 51.7 131.3 51.6 130.8 51.8 130.6 52.25 130.9 52.55 131.45 52.65 131.95 52.45 132.15 52.05 M159.3 79.2 L159.6 79.7 159.35 80.25 158.9 80.5 158.3 80.35 158.1 79.85 158.25 79.3 158.75 79.0 159.3 79.2 M72.7 14.55 L72.0 14.4 Q71.65 14.4 71.4 14.7 L71.2 15.4 71.55 16.0 72.25 16.2 72.85 15.85 73.1 15.2 72.7 14.55 M74.6 13.55 L73.9 13.35 Q73.45 13.4 73.25 13.75 72.9 14.05 72.95 14.45 73.0 14.9 73.4 15.2 L74.05 15.35 74.75 15.0 74.95 14.25 74.6 13.55 M69.1 15.15 L68.9 15.6 69.2 15.95 69.75 16.05 70.25 15.85 70.45 15.4 70.15 15.05 69.6 14.9 Q69.3 14.95 69.1 15.15 M76.05 49.45 Q77.7 51.65 76.0 53.8 L75.55 54.25 75.45 55.55 77.25 56.45 77.45 59.0 74.45 60.05 70.1 59.85 Q68.45 57.8 70.0 55.5 L73.45 57.35 74.85 56.55 73.7 56.1 Q71.95 52.95 73.05 50.0 73.25 49.55 73.85 49.45 74.9 49.3 76.05 49.45 M34.15 59.2 Q34.7 58.7 35.55 58.6 36.45 58.5 37.15 58.95 37.8 59.35 37.85 60.05 37.95 60.75 37.4 61.3 36.8 61.9 35.9 61.95 35.05 62.05 34.4 61.55 33.65 61.15 33.6 60.45 33.55 59.7 34.15 59.2 M78.1 53.9 L78.5 54.4 78.2 55.05 77.35 55.4 76.45 55.2 Q76.05 55.0 76.0 54.65 75.95 54.3 76.3 54.05 76.7 53.8 77.2 53.75 L78.1 53.9 M61.45 59.05 Q62.1 58.2 63.25 58.1 64.3 58.0 65.15 58.7 66.05 59.45 66.1 60.5 66.25 61.6 65.5 62.45 64.8 63.25 63.75 63.35 62.6 63.5 61.8 62.8 61.0 62.05 60.85 60.95 60.8 59.9 61.45 59.05 M48.45 71.1 L48.15 70.65 47.45 70.55 Q47.05 70.6 46.85 70.8 L46.65 71.3 Q46.65 71.6 46.95 71.7 L47.6 71.85 Q48.0 71.8 48.25 71.55 L48.45 71.1 M43.9 63.9 L43.85 62.9 42.2 63.05 42.95 64.6 42.6 66.05 43.05 66.45 43.1 68.05 44.0 65.5 42.95 64.6 43.9 63.9 M78.45 73.35 Q78.2 73.6 78.25 73.9 78.2 74.15 78.5 74.35 L79.05 74.5 79.5 74.25 79.7 73.75 79.45 73.25 Q79.2 73.1 78.9 73.1 L78.45 73.35 M78.0 70.7 Q77.7 70.65 77.5 70.9 77.3 71.1 77.35 71.4 L77.55 71.9 78.1 72.1 78.6 71.85 78.8 71.3 78.55 70.8 78.0 70.7 M56.0 79.75 L55.65 79.25 Q55.65 78.95 55.9 78.75 56.15 78.5 56.55 78.5 L57.2 78.65 57.55 79.1 57.3 79.65 56.7 79.9 56.0 79.75 M67.8 85.8 L67.05 86.1 Q66.65 86.45 66.7 86.8 66.75 87.2 67.15 87.5 L67.95 87.65 68.75 87.35 69.0 86.6 68.65 86.0 67.8 85.8 M65.35 84.75 Q65.4 85.05 65.6 85.2 L66.1 85.35 66.5 85.15 66.6 84.65 66.4 84.25 66.0 84.1 65.5 84.3 Q65.35 84.5 65.35 84.75 M71.4 85.45 L70.9 85.25 Q70.6 85.3 70.4 85.6 L70.2 86.05 70.5 86.65 71.0 86.8 71.5 86.5 71.65 85.95 Q71.7 85.65 71.4 85.45 M72.3 84.2 L72.6 83.4 Q72.55 82.95 72.15 82.6 71.75 82.3 71.3 82.35 70.8 82.4 70.5 82.8 70.25 83.15 70.3 83.6 70.3 84.1 70.65 84.4 71.0 84.7 71.5 84.65 L72.3 84.2 M78.85 75.4 L78.55 74.85 78.05 74.7 Q77.7 74.7 77.5 74.95 L77.35 75.5 77.65 76.05 78.2 76.2 78.7 75.95 78.85 75.4 M42.85 77.75 L42.7 78.0 42.95 78.4 43.4 78.5 43.9 78.3 44.05 77.9 43.8 77.65 43.3 77.55 Q43.0 77.6 42.85 77.75 M46.15 76.65 L46.75 76.4 46.9 75.7 46.65 75.2 45.95 75.0 Q45.6 75.05 45.4 75.35 45.15 75.6 45.2 75.9 L45.5 76.55 46.15 76.65" fill="#359f40" fill-rule="evenodd" stroke="none"/>
    <path d="M235.5 64.05 L231.8 65.7 233.6 69.5 233.2 70.35 231.75 70.85 Q224.8 85.25 204.55 84.75 199.05 81.05 192.8 79.3 L189.9 78.75 Q168.75 97.85 139.8 91.6 134.3 90.35 127.9 91.55 111.35 94.95 94.85 88.75 65.85 105.9 34.6 92.4 32.35 91.45 29.95 93.5 L22.25 100.65 4.8 99.25 11.35 97.2 11.8 96.3 14.2 95.45 13.1 94.6 18.45 92.35 18.0 91.7 16.7 90.6 Q16.25 90.2 15.7 90.3 L9.0 88.75 9.25 86.4 19.5 86.35 25.4 81.6 25.0 79.4 26.75 76.4 Q23.7 72.95 20.0 70.6 13.1 66.2 5.3 69.2 7.45 67.5 9.8 66.2 17.0 62.25 24.0 66.65 L24.85 65.4 26.55 65.5 29.5 66.45 Q33.1 67.95 34.85 71.5 L36.1 71.4 37.25 71.5 Q38.85 72.05 39.85 73.5 40.65 74.75 40.15 76.25 L41.2 78.05 Q41.05 80.15 39.7 81.6 L39.15 82.1 37.55 83.35 Q36.4 84.05 34.9 84.2 L37.45 84.75 39.1 87.45 41.8 87.45 Q43.75 85.75 46.25 86.35 L49.05 87.1 49.5 88.6 Q54.3 91.1 59.75 92.25 67.25 93.6 73.8 89.95 74.15 90.2 74.6 90.25 L75.2 90.25 Q76.0 89.75 76.35 88.9 L76.85 87.45 76.95 86.8 Q77.05 85.75 76.4 84.85 L75.4 83.6 84.65 79.0 82.7 76.0 84.1 75.3 84.8 73.3 83.55 71.25 83.9 70.1 80.9 66.9 Q76.65 63.9 71.75 63.1 L69.25 62.8 Q75.85 60.9 82.8 62.05 L84.95 64.6 87.3 64.75 89.35 66.2 Q91.85 54.05 103.35 49.8 L106.7 48.7 107.25 47.35 116.5 46.0 117.4 47.1 107.25 52.6 107.25 55.9 95.7 61.6 95.75 65.75 92.65 67.55 93.25 69.3 91.8 69.8 91.95 75.55 95.55 75.85 94.25 78.65 Q97.0 81.3 100.75 82.0 L104.85 81.8 105.3 83.05 109.85 82.75 Q112.4 86.15 116.95 85.85 120.45 85.9 123.4 84.05 L125.25 84.4 Q127.25 84.7 129.1 83.75 L131.6 82.55 132.15 80.95 133.65 81.3 136.8 75.15 135.5 72.1 135.4 68.85 143.95 74.15 144.7 78.55 145.95 79.25 145.4 82.4 146.0 83.1 148.95 83.65 157.85 87.45 158.55 86.9 Q161.7 87.05 164.75 86.25 173.3 84.2 180.0 78.2 L179.4 76.8 181.55 71.2 179.8 70.55 178.35 66.7 172.75 60.15 168.0 59.35 167.55 58.6 153.5 62.15 Q156.75 58.9 161.05 56.95 166.95 54.2 173.4 54.5 L181.05 56.95 Q179.6 54.2 180.85 51.45 181.25 50.5 181.8 49.6 L181.9 47.9 183.25 46.5 187.95 45.65 194.5 44.35 188.45 48.45 186.15 51.6 186.6 53.2 187.85 53.4 Q186.1 57.5 187.7 61.8 L191.3 62.4 194.25 69.55 192.15 73.45 Q196.75 78.05 201.7 76.6 L201.9 74.65 205.45 73.7 206.35 68.3 209.65 69.7 Q209.7 71.85 211.75 72.9 217.45 76.0 223.1 71.85 L224.8 66.0 223.15 63.85 223.95 62.25 223.6 61.4 Q221.5 57.1 216.8 57.3 L215.45 57.35 216.6 56.8 Q219.65 56.1 222.5 57.2 225.25 58.15 227.5 59.9 L229.25 57.4 227.95 55.35 228.8 52.35 219.95 48.4 226.25 47.7 Q228.8 49.0 230.55 51.3 232.25 53.5 232.7 56.35 L231.55 58.0 234.3 58.75 234.7 59.9 233.8 60.25 235.5 64.05 M49.5 44.85 L47.45 45.1 Q46.45 45.35 45.55 45.75 42.85 46.9 40.8 48.75 L40.45 50.1 39.05 49.85 39.8 47.9 38.75 45.5 41.85 42.6 43.1 34.6 49.85 32.1 51.1 32.55 54.6 31.3 55.45 30.15 57.75 30.15 62.0 32.8 69.55 31.75 70.1 30.5 76.45 28.15 76.0 22.35 77.3 22.0 77.1 20.05 81.15 17.95 80.75 15.85 80.7 14.6 80.85 14.05 81.1 13.5 81.85 12.3 84.5 11.45 Q86.0 7.3 89.75 5.3 100.7 -0.85 113.0 -0.95 L114.25 1.8 118.05 2.45 Q119.3 2.7 120.05 3.6 L121.9 6.05 124.35 7.25 126.55 12.75 Q130.1 10.3 134.25 9.2 141.3 7.25 148.05 9.5 L133.65 14.05 131.75 17.6 132.6 21.25 131.35 23.4 132.6 29.4 131.4 30.15 131.05 32.0 139.5 30.05 139.1 29.1 Q141.4 26.9 144.4 25.7 159.1 19.9 174.15 25.9 L169.25 25.9 Q153.55 26.95 142.65 38.4 L145.55 45.7 141.65 52.65 138.85 54.2 Q138.65 50.75 137.45 47.5 135.95 43.45 133.3 40.35 L129.3 38.85 128.85 37.8 115.0 35.25 114.1 36.4 112.85 36.05 Q115.6 34.3 118.85 33.3 122.75 32.2 126.75 32.8 L124.65 24.45 121.85 23.85 Q121.45 21.6 120.1 19.7 119.35 18.75 118.05 18.3 L115.85 17.7 115.15 17.05 111.6 16.75 110.8 15.8 88.0 16.9 85.55 20.4 83.1 20.4 80.45 31.2 85.1 32.7 Q86.7 33.25 87.8 34.5 L89.25 36.4 76.75 32.65 70.65 36.65 Q74.0 39.05 76.85 42.15 78.45 43.95 79.45 46.25 L75.15 43.65 Q62.85 36.75 48.65 39.1 L49.5 44.85 M188.55 24.95 L193.9 23.9 200.4 26.4 201.0 27.4 201.65 28.2 Q203.55 30.3 206.25 29.95 207.2 31.75 207.25 33.65 207.35 37.75 204.6 40.8 L203.75 40.65 203.7 39.95 Q203.45 38.35 202.2 37.2 200.6 35.9 198.5 36.25 L199.0 30.5 Q194.4 25.0 187.25 25.15 L188.55 24.95" fill="#206040" fill-rule="evenodd" stroke="none"/>
  </g>
</svg>
