<?xml version="1.0" encoding="UTF-8" standalone="no"?>
<svg xmlns:xlink="http://www.w3.org/1999/xlink" height="351.3px" width="197.65px" xmlns="http://www.w3.org/2000/svg">
  <g transform="matrix(1.0, 0.0, 0.0, 1.0, 73.65, 330.1)">
    <path d="M6.1 -312.45 L5.9 -312.1 Q8.9 -308.4 13.0 -302.05 L11.65 -303.6 Q2.15 -306.4 -2.5 -303.8 -2.05 -301.7 0.3 -297.2 -7.9 -294.8 -9.95 -291.55 -2.6 -292.35 -0.05 -290.95 -21.1 -284.05 -36.7 -265.65 L-37.35 -264.55 -37.25 -263.6 -26.25 -268.15 Q-36.75 -262.5 -39.5 -251.6 L-39.5 -250.3 -29.55 -252.9 -29.05 -253.25 Q-28.55 -252.75 -29.55 -252.9 -46.0 -241.2 -47.35 -222.2 L-47.15 -221.8 -45.85 -221.1 -33.55 -228.1 Q-34.55 -218.25 -30.0 -212.5 -25.9 -211.05 -17.5 -215.6 L-17.5 -215.0 -17.6 -214.95 Q-31.0 -200.55 -36.6 -215.35 -48.3 -204.15 -53.35 -189.2 -58.4 -174.25 -58.15 -167.6 -57.95 -161.0 -56.9 -156.5 L-56.4 -154.55 Q-49.0 -156.35 -45.05 -159.8 -44.85 -151.9 -41.55 -148.8 L-40.1 -147.35 Q-37.25 -148.5 -32.75 -151.35 -29.85 -153.15 -23.45 -161.2 -25.85 -155.5 -22.3 -146.4 -20.25 -146.55 -19.35 -147.25 L-14.05 -151.35 -13.35 -147.2 Q-12.35 -143.1 -10.05 -143.35 -8.0 -143.6 1.05 -151.0 9.7 -143.55 13.55 -142.85 L18.2 -142.2 Q24.15 -142.2 29.15 -147.35 33.45 -151.85 33.45 -155.2 33.45 -156.1 34.0 -156.35 L34.95 -156.5 35.15 -155.8 36.3 -155.5 43.7 -152.9 Q50.4 -152.9 52.95 -155.8 55.6 -158.8 54.0 -165.3 L56.6 -165.35 64.15 -164.95 Q67.5 -176.45 51.95 -193.0 48.8 -190.75 42.65 -194.25 39.25 -196.8 36.9 -198.8 34.8 -189.1 30.1 -188.65 22.6 -186.6 16.35 -199.75 15.55 -189.75 4.7 -190.95 -3.95 -192.85 -8.05 -206.1 4.45 -192.55 9.55 -199.2 12.05 -203.9 14.6 -207.7 17.9 -205.4 21.5 -204.2 27.15 -202.35 31.3 -206.45 33.05 -208.25 33.25 -210.65 L33.4 -212.25 33.2 -216.85 Q37.7 -214.0 41.35 -213.3 54.6 -223.75 52.0 -235.25 L57.4 -233.95 Q60.6 -249.0 49.9 -264.85 L56.7 -265.4 Q54.4 -272.8 41.15 -283.0 L36.2 -286.8 Q41.35 -294.6 41.1 -300.9 37.7 -301.85 27.45 -295.45 21.2 -306.7 15.95 -309.75 9.8 -313.85 6.1 -312.45 M-4.35 -320.65 Q16.95 -321.2 29.65 -306.55 35.7 -312.0 48.35 -312.55 49.6 -303.25 45.9 -297.6 L45.75 -297.4 Q53.45 -294.55 58.45 -289.5 63.45 -284.5 63.75 -280.35 L54.8 -280.15 53.95 -280.3 Q68.75 -270.05 70.15 -262.3 62.95 -259.85 61.25 -260.25 69.7 -254.9 70.65 -245.85 67.1 -243.15 61.35 -246.1 71.85 -238.35 74.7 -231.65 78.0 -223.9 73.95 -220.55 L68.25 -225.7 Q69.35 -222.8 68.9 -221.15 66.25 -211.85 59.05 -218.3 59.15 -214.55 58.9 -211.7 L58.5 -211.65 58.8 -211.05 Q57.35 -199.15 48.6 -205.3 58.65 -191.6 62.15 -205.9 L62.85 -209.45 Q67.7 -205.2 72.35 -212.85 86.6 -201.1 84.9 -189.65 L80.55 -189.8 84.45 -186.45 Q94.8 -176.0 89.55 -162.35 87.6 -161.35 85.45 -161.3 82.0 -161.25 79.3 -163.25 L80.3 -161.05 Q85.15 -150.15 83.45 -141.9 83.05 -139.1 79.35 -142.15 75.65 -145.2 75.15 -148.15 75.55 -142.4 71.2 -134.65 68.25 -134.7 60.6 -139.95 59.1 -129.05 54.6 -127.75 51.0 -128.95 49.15 -137.0 45.85 -125.45 39.15 -134.65 42.6 -120.85 48.6 -128.15 53.9 -119.05 58.15 -124.25 61.95 -128.95 62.75 -131.45 63.15 -130.75 65.35 -128.95 68.9 -126.15 74.25 -129.2 70.5 -112.95 55.7 -109.6 L54.65 -109.5 Q50.3 -85.05 28.3 -92.85 16.0 -66.25 7.0 -85.1 L5.9 -85.0 Q-4.5 -72.25 -20.8 -71.55 L-24.95 -74.25 Q-31.45 -78.95 -36.0 -85.5 -36.7 -82.1 -38.8 -76.35 -47.2 -82.0 -48.9 -92.35 L-48.95 -92.6 -49.0 -92.9 -49.05 -92.95 -49.05 -93.15 -49.2 -94.4 -49.2 -94.55 Q-51.75 -105.15 -40.55 -117.65 -44.55 -117.6 -50.25 -111.55 -56.05 -105.55 -55.4 -100.45 -60.15 -108.25 -61.3 -119.65 L-61.35 -120.65 -61.5 -122.1 -67.1 -120.05 Q-70.6 -130.6 -64.3 -140.15 L-72.95 -136.0 Q-74.5 -141.4 -72.7 -146.85 -71.5 -150.5 -68.9 -153.4 L-66.75 -155.7 Q-68.0 -184.6 -52.95 -208.9 L-63.55 -203.85 Q-60.0 -228.6 -43.45 -248.9 -45.8 -247.25 -48.6 -247.45 L-51.35 -248.1 -53.0 -248.9 -54.05 -249.65 Q-34.75 -278.45 -12.35 -292.2 L-20.1 -292.8 -17.85 -295.4 Q-13.35 -300.85 -6.7 -302.9 L-7.35 -302.85 Q-9.65 -302.95 -11.4 -304.8 -13.8 -307.5 -13.55 -311.1 L4.25 -310.25 Q-2.65 -315.45 -4.35 -320.65 M19.5 -135.6 Q12.45 -133.35 7.05 -140.7 -2.75 -127.5 -7.35 -126.05 L-14.45 -125.8 Q-16.9 -127.0 -19.8 -130.15 L-19.3 -130.25 Q-18.15 -130.4 -19.9 -130.45 L-20.6 -132.1 -22.8 -130.45 Q-23.45 -129.5 -28.6 -129.4 -33.8 -129.3 -34.85 -142.4 -46.9 -136.55 -50.1 -131.25 -53.3 -125.95 -53.35 -120.2 -42.2 -122.95 -38.3 -125.3 L-38.45 -124.6 Q-38.6 -123.25 -38.4 -122.05 L-38.05 -118.65 -32.35 -119.25 Q-34.15 -116.4 -34.15 -109.35 -34.2 -102.35 -31.75 -94.3 -22.5 -100.5 -20.55 -104.5 L-19.9 -104.55 Q-13.65 -91.3 -9.95 -94.9 -5.05 -99.15 -4.3 -104.2 L1.05 -98.75 Q4.75 -100.4 6.8 -105.85 8.45 -110.3 9.7 -115.95 12.3 -113.75 15.9 -114.5 L17.15 -114.85 Q25.25 -123.6 19.5 -135.6 M28.3 -92.85 L28.05 -92.95 27.7 -91.75 28.3 -92.85 M-14.75 -217.2 L-14.4 -217.4 -2.65 -213.75 -14.75 -217.2 M-16.4 -131.85 L-15.25 -130.9 Q-7.4 -128.9 -3.95 -143.4 -13.95 -128.1 -17.7 -145.3 -20.2 -142.1 -22.05 -140.85 L-22.0 -140.85 -23.1 -140.3 Q-27.3 -138.8 -27.05 -150.15 -31.0 -142.9 -28.5 -137.25 -26.25 -132.15 -19.95 -137.5 -18.05 -133.7 -16.4 -131.85" fill="#3da714" fill-rule="evenodd" stroke="none"/>
    <path d="M-4.35 -320.65 Q-4.75 -321.85 -4.75 -323.1 14.1 -324.9 29.0 -317.95 33.05 -326.75 45.7 -330.1 49.65 -325.4 43.2 -317.85 56.4 -325.4 66.4 -322.35 67.15 -314.35 59.85 -309.6 67.7 -307.85 72.9 -301.4 L77.1 -296.35 Q74.95 -295.55 69.9 -294.95 80.9 -290.85 85.5 -281.05 82.1 -279.0 80.75 -278.6 88.7 -270.5 88.15 -261.45 92.5 -259.5 96.5 -249.9 90.3 -246.0 86.2 -247.25 100.7 -240.75 104.4 -231.8 L96.25 -228.25 Q114.8 -207.4 118.7 -168.2 127.75 -150.4 121.3 -140.0 L117.05 -143.45 Q124.6 -129.75 115.35 -113.85 L109.5 -118.95 Q106.75 -103.1 88.9 -98.9 L83.8 -91.55 Q71.05 -73.8 48.7 -72.55 L37.3 -69.45 14.0 -65.4 -3.0 -65.75 Q-12.6 -66.85 -20.8 -71.55 -4.5 -72.25 5.9 -85.0 L7.0 -85.1 Q16.0 -66.25 28.3 -92.85 50.3 -85.05 54.65 -109.5 L55.7 -109.6 Q70.5 -112.95 74.25 -129.2 68.9 -126.15 65.35 -128.95 63.15 -130.75 62.75 -131.45 61.95 -128.95 58.15 -124.25 53.9 -119.05 48.6 -128.15 42.6 -120.85 39.15 -134.65 45.85 -125.45 49.15 -137.0 51.0 -128.95 54.6 -127.75 59.1 -129.05 60.6 -139.95 68.25 -134.7 71.2 -134.65 75.55 -142.4 75.15 -148.15 75.65 -145.2 79.35 -142.15 83.05 -139.1 83.45 -141.9 85.15 -150.15 80.3 -161.05 L79.3 -163.25 Q82.0 -161.25 85.45 -161.3 87.6 -161.35 89.55 -162.35 94.8 -176.0 84.45 -186.45 L80.55 -189.8 84.9 -189.65 Q86.6 -201.1 72.35 -212.85 67.7 -205.2 62.85 -209.45 L62.15 -205.9 Q58.65 -191.6 48.6 -205.3 57.35 -199.15 58.8 -211.05 L58.5 -211.65 58.9 -211.7 Q59.15 -214.55 59.05 -218.3 66.25 -211.85 68.9 -221.15 69.35 -222.8 68.25 -225.7 L73.95 -220.55 Q78.0 -223.9 74.7 -231.65 71.85 -238.35 61.35 -246.1 67.1 -243.15 70.65 -245.85 69.7 -254.9 61.25 -260.25 62.95 -259.85 70.15 -262.3 68.75 -270.05 53.95 -280.3 L54.8 -280.15 63.75 -280.35 Q63.45 -284.5 58.45 -289.5 53.45 -294.55 45.75 -297.4 L45.9 -297.6 Q49.6 -303.25 48.35 -312.55 35.7 -312.0 29.65 -306.55 16.95 -321.2 -4.35 -320.65 M28.3 -92.85 L27.7 -91.75 28.05 -92.95 28.3 -92.85 M-55.4 -100.45 Q-56.05 -105.55 -50.25 -111.55 -44.55 -117.6 -40.55 -117.65 -51.75 -105.15 -49.2 -94.55 L-49.2 -94.4 -49.05 -93.15 -49.05 -92.95 -49.8 -93.65 Q-53.05 -96.65 -55.4 -100.45 M-16.4 -131.85 Q-18.05 -133.7 -19.95 -137.5 -26.25 -132.15 -28.5 -137.25 -31.0 -142.9 -27.05 -150.15 -27.3 -138.8 -23.1 -140.3 L-22.0 -140.85 -22.05 -140.85 Q-20.2 -142.1 -17.7 -145.3 -13.95 -128.1 -3.95 -143.4 -7.4 -128.9 -15.25 -130.9 L-16.4 -131.85" fill="#308310" fill-rule="evenodd" stroke="none"/>
    <path d="M6.1 -312.45 Q9.8 -313.85 15.95 -309.75 21.2 -306.7 27.45 -295.45 37.7 -301.85 41.1 -300.9 41.35 -294.6 36.2 -286.8 L41.15 -283.0 Q54.4 -272.8 56.7 -265.4 L49.9 -264.85 Q60.6 -249.0 57.4 -233.95 L52.0 -235.25 Q54.6 -223.75 41.35 -213.3 37.7 -214.0 33.2 -216.85 L33.4 -212.25 33.25 -210.65 Q33.05 -208.25 31.3 -206.45 27.15 -202.35 21.5 -204.2 17.9 -205.4 14.6 -207.7 12.05 -203.9 9.55 -199.2 4.45 -192.55 -8.05 -206.1 -3.95 -192.85 4.7 -190.95 15.55 -189.75 16.35 -199.75 22.6 -186.6 30.1 -188.65 34.8 -189.1 36.9 -198.8 39.25 -196.8 42.65 -194.25 48.8 -190.75 51.95 -193.0 67.5 -176.45 64.15 -164.95 L56.6 -165.35 54.0 -165.3 Q55.6 -158.8 52.95 -155.8 50.4 -152.9 43.7 -152.9 L36.3 -155.5 35.15 -155.8 34.95 -156.5 34.0 -156.35 Q33.45 -156.1 33.45 -155.2 33.45 -151.85 29.15 -147.35 24.15 -142.2 18.2 -142.2 L13.55 -142.85 Q9.7 -143.55 1.05 -151.0 -8.0 -143.6 -10.05 -143.35 -12.35 -143.1 -13.35 -147.2 L-14.05 -151.35 -19.35 -147.25 Q-20.25 -146.55 -22.3 -146.4 -25.85 -155.5 -23.45 -161.2 -29.85 -153.15 -32.75 -151.35 -37.25 -148.5 -40.1 -147.35 L-41.55 -148.8 Q-44.85 -151.9 -45.05 -159.8 -49.0 -156.35 -56.4 -154.55 L-56.9 -156.5 Q-57.95 -161.0 -58.15 -167.6 -58.4 -174.25 -53.35 -189.2 -48.3 -204.15 -36.6 -215.35 -31.0 -200.55 -17.6 -214.95 L-17.5 -215.0 -17.5 -215.6 Q-25.9 -211.05 -30.0 -212.5 -34.55 -218.25 -33.55 -228.1 L-45.85 -221.1 -47.15 -221.8 -47.35 -222.2 Q-46.0 -241.2 -29.55 -252.9 -28.55 -252.75 -29.05 -253.25 L-29.55 -252.9 -39.5 -250.3 -39.5 -251.6 Q-36.75 -262.5 -26.25 -268.15 L-37.25 -263.6 -37.35 -264.55 -36.7 -265.65 Q-21.1 -284.05 -0.05 -290.95 -2.6 -292.35 -9.95 -291.55 -7.9 -294.8 0.3 -297.2 -2.05 -301.7 -2.5 -303.8 2.15 -306.4 11.65 -303.6 L13.0 -302.05 Q8.9 -308.4 5.9 -312.1 L6.1 -312.45 M19.5 -135.6 Q25.25 -123.6 17.15 -114.85 L15.9 -114.5 Q12.3 -113.75 9.7 -115.95 8.45 -110.3 6.8 -105.85 4.75 -100.4 1.05 -98.75 L-4.3 -104.2 Q-5.05 -99.15 -9.95 -94.9 -13.65 -91.3 -19.9 -104.55 L-20.55 -104.5 Q-22.5 -100.5 -31.75 -94.3 -34.2 -102.35 -34.15 -109.35 -34.15 -116.4 -32.35 -119.25 L-38.05 -118.65 -38.4 -122.05 Q-38.6 -123.25 -38.45 -124.6 L-38.3 -125.3 Q-42.2 -122.95 -53.35 -120.2 -53.3 -125.95 -50.1 -131.25 -46.9 -136.55 -34.85 -142.4 -33.8 -129.3 -28.6 -129.4 -23.45 -129.5 -22.8 -130.45 L-20.6 -132.1 -19.9 -130.45 Q-18.15 -130.4 -19.3 -130.25 L-19.8 -130.15 Q-16.9 -127.0 -14.45 -125.8 L-7.35 -126.05 Q-2.75 -127.5 7.05 -140.7 12.45 -133.35 19.5 -135.6 M-14.75 -217.2 L-2.65 -213.75 -14.4 -217.4 -14.75 -217.2" fill="#42b715" fill-rule="evenodd" stroke="none"/>
    <path d="M16.25 17.65 L16.8 13.7 17.5 7.2 Q18.2 -1.35 18.4 -9.8 18.65 -18.35 17.95 -26.75 17.25 -35.0 15.3 -43.15 12.3 -47.4 5.8 -54.85 L1.05 -60.5 Q5.8 -59.25 9.75 -59.85 18.6 -50.9 21.95 -34.3 25.65 -16.15 25.65 -10.85 25.65 -6.3 24.55 0.4 L22.5 12.25 22.85 12.6 Q24.2 10.9 24.2 6.9 24.15 2.0 24.5 0.9 26.75 -6.4 26.75 -10.85 26.75 -16.2 24.25 -27.05 23.4 -30.85 21.8 -43.7 19.4 -52.95 10.2 -59.95 13.25 -60.55 15.8 -62.3 L18.2 -58.95 Q22.85 -53.0 26.35 -53.0 28.05 -53.0 29.2 -54.75 29.9 -55.75 31.25 -59.15 32.85 -63.15 34.8 -66.15 33.6 -63.25 40.6 -64.1 35.55 -56.45 31.3 -44.85 29.4 -37.65 30.65 -30.2 32.1 -21.6 32.45 -12.75 32.8 -3.9 31.85 5.0 L30.95 12.2 29.15 14.2 26.2 16.8 Q25.65 16.7 26.1 16.9 L24.1 18.85 23.1 18.7 19.85 18.2 16.6 17.65 16.25 17.65" fill="#623100" fill-rule="evenodd" stroke="none"/>
    <path d="M-3.0 -65.75 L14.0 -65.4 15.8 -62.3 Q13.25 -60.55 10.2 -59.95 19.4 -52.95 21.8 -43.7 23.4 -30.85 24.25 -27.05 26.75 -16.2 26.75 -10.85 26.75 -6.4 24.5 0.9 24.15 2.0 24.2 6.9 24.2 10.9 22.85 12.6 L22.5 12.25 24.55 0.4 Q25.65 -6.3 25.65 -10.85 25.65 -16.15 21.95 -34.3 18.6 -50.9 9.75 -59.85 5.8 -59.25 1.05 -60.5 L-3.0 -65.75 M37.3 -69.45 L48.7 -72.55 Q47.4 -68.95 41.75 -56.75 38.85 -50.45 37.55 -45.5 L36.7 -38.65 Q35.9 -30.35 36.3 -22.15 L36.95 -5.35 37.3 11.55 Q37.4 13.75 38.1 17.2 38.5 17.4 37.3 17.85 L33.2 19.4 Q30.35 20.55 29.9 20.9 L29.25 21.2 Q29.55 20.2 30.15 19.1 L27.75 19.45 Q23.95 20.35 22.65 20.9 21.35 19.8 18.35 19.05 L16.15 18.65 16.25 17.65 16.6 17.65 19.85 18.2 23.1 18.7 24.1 18.85 26.1 16.9 Q25.65 16.7 26.2 16.8 L29.15 14.2 30.95 12.2 31.85 5.0 Q32.8 -3.9 32.45 -12.75 32.1 -21.6 30.65 -30.2 29.4 -37.65 31.3 -44.85 35.55 -56.45 40.6 -64.1 33.6 -63.25 34.8 -66.15 36.0 -68.0 37.3 -69.45" fill="#3e1f00" fill-rule="evenodd" stroke="none"/>
  </g>
</svg>
