<?xml version="1.0" encoding="UTF-8" standalone="no"?>
<svg xmlns:xlink="http://www.w3.org/1999/xlink" height="222.0px" width="174.1px" xmlns="http://www.w3.org/2000/svg">
  <g transform="matrix(1.0, 0.0, 0.0, 1.0, 1.35, 0.0)">
    <path d="M105.3 195.8 Q171.2 218.0 172.75 222.0 152.7 217.05 98.3 219.55 43.95 222.05 23.35 213.1 2.7 204.1 -0.85 196.7 -4.45 189.25 17.4 181.45 39.35 173.6 105.3 195.8" fill="#000000" fill-opacity="0.14901961" fill-rule="evenodd" stroke="none"/>
    <path d="M45.5 94.35 L43.05 88.2 40.0 80.55 Q36.9 84.55 30.55 89.4 L26.05 92.65 Q31.4 77.65 37.6 62.45 L44.6 57.2 Q50.75 52.45 53.0 51.1 52.45 52.6 53.95 57.95 55.2 63.0 56.6 65.8 L57.9 65.8 Q57.6 63.4 58.1 59.95 58.6 56.0 59.75 54.75 60.1 57.05 62.25 60.0 65.15 64.1 68.25 64.6 68.25 64.15 67.9 63.65 L67.1 62.75 67.1 55.95 68.8 57.25 Q70.7 74.2 74.2 90.6 66.5 87.3 64.25 85.7 L64.05 85.55 64.05 86.15 Q65.0 90.05 66.1 93.1 L67.7 97.2 Q66.5 97.5 63.8 95.65 61.45 94.0 58.05 90.6 L50.45 83.0 49.0 87.25 49.0 87.3 47.95 90.15 Q46.45 94.0 46.15 95.95 L45.5 94.35 M28.05 143.05 L36.3 135.35 Q40.75 130.9 41.85 128.55 L49.05 136.2 Q55.2 142.25 57.2 142.15 L56.7 138.75 Q55.95 135.85 54.75 134.15 L54.75 129.85 64.85 136.8 Q72.95 142.15 76.3 142.15 L78.2 142.15 Q76.0 141.2 73.75 136.75 71.9 132.95 71.45 130.15 77.05 133.05 81.7 135.1 85.25 136.75 87.95 137.65 93.8 153.5 101.3 168.7 101.1 168.85 100.85 168.95 97.95 168.5 94.7 166.65 94.7 167.9 97.3 171.45 L98.7 173.3 100.25 174.95 100.25 175.85 96.1 174.6 89.8 172.65 Q81.35 169.9 80.0 169.1 80.45 171.25 82.15 174.35 L84.0 177.55 88.6 184.4 84.8 184.4 83.95 184.45 Q78.45 184.5 66.1 177.35 59.35 173.4 53.0 169.1 L53.0 174.0 57.5 185.5 60.35 191.7 Q56.6 190.85 44.75 182.8 31.85 174.15 28.35 169.1 28.55 173.4 28.05 177.2 27.6 181.25 26.5 182.5 L18.55 171.75 Q12.3 163.3 12.3 161.65 10.7 165.7 7.2 168.65 L3.35 171.3 Q6.7 155.6 11.05 139.5 13.8 137.9 17.8 135.1 28.7 127.55 30.8 126.7 31.3 130.45 30.3 135.1 29.45 138.9 27.7 142.75 L27.7 143.35 28.05 143.05" fill="#015c1c" fill-rule="evenodd" stroke="none"/>
    <path d="M26.05 92.65 L30.55 89.4 Q36.9 84.55 40.0 80.55 L43.05 88.2 45.5 94.35 Q43.95 97.55 42.45 99.05 L39.85 93.6 Q37.7 89.3 36.95 88.6 35.15 90.5 26.85 96.05 L24.1 97.85 26.05 92.65 M49.0 87.25 L50.45 83.0 58.05 90.6 Q61.45 94.0 63.8 95.65 L64.05 96.3 Q65.5 100.35 66.5 100.9 59.15 97.25 55.95 95.2 49.35 90.8 49.2 87.3 L49.0 87.25 M66.1 93.1 Q65.0 90.05 64.05 86.15 L64.25 85.7 Q66.5 87.3 74.2 90.6 L75.75 97.35 69.75 94.8 66.1 93.1 M3.35 171.3 L7.2 168.65 Q10.7 165.7 12.3 161.65 12.3 163.3 18.55 171.75 L26.5 182.5 Q27.6 181.25 28.05 177.2 28.55 173.4 28.35 169.1 31.85 174.15 44.75 182.8 56.6 190.85 60.35 191.7 L57.5 185.5 53.0 174.0 53.0 169.1 Q59.35 173.4 66.1 177.35 78.45 184.5 83.95 184.45 86.35 189.35 87.95 189.95 L86.75 189.95 Q85.65 189.95 79.7 187.05 L73.3 184.1 73.25 183.8 72.65 183.8 73.3 184.1 Q73.9 186.0 75.3 186.9 77.55 188.3 78.45 189.0 L78.2 189.35 67.75 183.95 Q61.0 180.05 58.45 177.7 L60.75 188.25 63.35 199.75 Q53.3 194.7 31.4 180.05 31.4 180.65 30.8 180.65 L30.8 184.4 Q31.1 184.65 31.4 186.0 L32.0 188.1 32.0 191.15 Q31.25 190.85 26.95 187.55 22.55 184.3 21.6 183.8 L22.2 184.4 22.25 185.85 22.4 186.25 22.05 186.4 Q21.2 184.4 16.6 178.8 11.65 172.75 11.75 171.55 12.1 171.55 12.25 171.25 L12.3 170.95 11.75 171.55 Q10.0 173.0 4.7 175.85 L2.15 177.25 3.35 171.3 M82.15 174.35 Q80.45 171.25 80.0 169.1 81.35 169.9 89.8 172.65 L96.1 174.6 97.35 176.95 Q99.45 181.1 100.85 182.5 96.1 180.15 89.5 177.35 L82.15 174.35 M98.7 173.3 L97.3 171.45 Q94.7 167.9 94.7 166.65 97.95 168.5 100.85 168.95 L101.45 169.0 104.5 175.1 102.05 174.45 98.7 173.3" fill="#017624" fill-rule="evenodd" stroke="none"/>
    <path d="M24.1 97.85 L26.85 96.05 Q35.15 90.5 36.95 88.6 37.7 89.3 39.85 93.6 L42.45 99.05 Q43.95 97.55 45.5 94.35 L46.15 95.95 Q46.45 94.0 47.95 90.15 L49.0 87.3 49.0 87.25 49.2 87.3 Q49.35 90.8 55.95 95.2 59.15 97.25 66.5 100.9 65.5 100.35 64.05 96.3 L63.8 95.65 Q66.5 97.5 67.7 97.2 L66.1 93.1 69.75 94.8 75.75 97.35 Q80.6 117.95 87.95 137.65 85.25 136.75 81.7 135.1 77.05 133.05 71.45 130.15 71.9 132.95 73.75 136.75 76.0 141.2 78.2 142.15 L76.3 142.15 Q72.95 142.15 64.85 136.8 L54.75 129.85 54.75 134.15 Q55.95 135.85 56.7 138.75 L57.2 142.15 Q55.2 142.25 49.05 136.2 L41.85 128.55 Q40.75 130.9 36.3 135.35 L28.05 143.05 27.7 142.75 Q29.45 138.9 30.3 135.1 31.3 130.45 30.8 126.7 28.7 127.55 17.8 135.1 13.8 137.9 11.05 139.5 16.7 118.95 24.1 97.85 M68.8 57.25 L67.1 55.95 67.1 62.75 67.9 63.65 Q68.25 64.15 68.25 64.6 65.15 64.1 62.25 60.0 60.1 57.05 59.75 54.75 58.6 56.0 58.1 59.95 57.6 63.4 57.9 65.8 L56.6 65.8 Q55.2 63.0 53.95 57.95 52.45 52.6 53.0 51.1 50.75 52.45 44.6 57.2 L37.6 62.45 Q50.3 31.8 66.4 0.0 65.5 29.35 68.8 57.25 M71.45 130.15 L71.4 129.85 70.8 129.85 71.45 130.15 M83.95 184.45 L84.8 184.4 88.6 184.4 84.0 177.55 82.15 174.35 89.5 177.35 Q96.1 180.15 100.85 182.5 99.45 181.1 97.35 176.95 L96.1 174.6 100.25 175.85 100.25 174.95 98.7 173.3 102.05 174.45 104.5 175.1 108.1 182.0 108.25 182.2 Q108.85 184.1 108.85 185.95 108.85 195.75 92.9 202.7 85.1 206.1 75.75 207.8 65.95 209.6 54.4 209.6 42.9 209.6 33.1 207.8 23.75 206.1 15.95 202.7 0.0 195.75 0.0 185.95 L0.1 185.1 1.5 180.2 2.15 177.25 4.7 175.85 Q10.0 173.0 11.75 171.55 L12.3 170.95 12.25 171.25 Q12.1 171.55 11.75 171.55 11.65 172.75 16.6 178.8 21.2 184.4 22.05 186.4 L22.4 186.25 22.25 185.85 22.2 184.4 21.6 183.8 Q22.55 184.3 26.95 187.55 31.25 190.85 32.0 191.15 L32.0 188.1 31.4 186.0 Q31.1 184.65 30.8 184.4 L30.8 180.65 Q31.4 180.65 31.4 180.05 53.3 194.7 63.35 199.75 L60.75 188.25 58.45 177.7 Q61.0 180.05 67.75 183.95 L78.2 189.35 78.45 189.0 Q77.55 188.3 75.3 186.9 73.9 186.0 73.3 184.1 L72.65 183.8 73.25 183.8 73.3 184.1 79.7 187.05 Q85.65 189.95 86.75 189.95 L87.95 189.95 Q86.35 189.35 83.95 184.45" fill="#009933" fill-rule="evenodd" stroke="none"/>
    <path d="M63.75 36.4 L63.5 44.05 Q62.5 80.95 73.3 116.4 L100.45 198.4 Q96.25 200.55 91.95 202.4 75.6 209.45 57.5 209.15 50.0 122.5 63.75 36.4" fill="#000000" fill-opacity="0.2901961" fill-rule="evenodd" stroke="none"/>
  </g>
</svg>
