<?xml version="1.0" encoding="UTF-8" standalone="no"?>
<svg xmlns:xlink="http://www.w3.org/1999/xlink" height="190.2px" width="233.25px" xmlns="http://www.w3.org/2000/svg">
  <g transform="matrix(1.0, 0.0, 0.0, 1.0, 219.85, 10.4)">
    <path d="M-183.9 -10.0 L-157.0 -9.35 -157.4 -6.75 Q-157.3 -6.3 -157.45 -5.85 -158.3 -5.65 -159.25 -4.85 -161.0 -3.55 -161.25 -1.35 -161.35 0.5 -159.9 2.1 -158.3 3.5 -155.95 3.6 -153.45 3.65 -151.6 2.35 -149.8 0.8 -149.65 -1.2 -149.45 -3.3 -151.0 -4.7 -152.3 -5.9 -154.1 -6.05 L-153.35 -8.2 -153.2 -9.25 -125.65 -8.5 -126.85 -4.95 Q-128.85 -5.05 -130.45 -3.7 -132.15 -2.45 -132.35 -0.3 -132.45 1.7 -130.9 3.3 -129.3 4.7 -126.95 4.8 -124.45 4.7 -122.75 3.55 -120.85 2.1 -120.85 0.05 -120.6 -2.15 -122.3 -3.5 -122.9 -4.15 -123.75 -4.45 L-122.05 -8.4 -97.65 -7.75 Q-97.5 -6.45 -97.5 -3.85 -98.3 -3.6 -99.0 -2.95 -100.75 -1.65 -100.9 0.45 -100.95 2.5 -99.45 4.05 -97.8 5.4 -95.4 5.55 -93.05 5.55 -91.25 4.25 -89.45 2.8 -89.55 0.8 -89.4 -1.4 -91.0 -2.75 -92.05 -3.8 -93.5 -4.05 -93.1 -5.55 -93.05 -7.65 L-67.55 -7.05 Q-67.4 -6.2 -67.4 -4.3 -67.25 -4.25 -67.35 -3.95 -69.4 -4.0 -70.95 -2.55 -72.75 -1.4 -72.8 0.8 -72.75 2.7 -71.3 4.25 -69.6 5.55 -67.2 5.8 -64.8 5.75 -63.1 4.45 -61.35 3.0 -61.35 1.1 -61.3 -1.15 -62.95 -2.4 -63.55 -3.15 -64.6 -3.5 L-64.9 -6.75 -64.85 -7.0 -36.95 -6.25 Q-37.05 -4.6 -37.4 -3.1 -38.8 -2.9 -40.1 -1.9 -41.6 -0.7 -41.75 1.55 -41.65 3.5 -40.1 5.0 -38.4 6.35 -36.05 6.55 -33.65 6.45 -31.95 5.3 -30.25 3.75 -30.35 1.8 -30.4 -0.4 -31.95 -1.65 -33.25 -3.0 -35.25 -3.05 L-34.55 -6.25 -9.0 -5.55 -9.0 -3.5 -8.7 -1.55 Q-10.5 -1.4 -11.8 -0.35 -13.3 1.0 -13.25 3.1 -13.3 5.1 -11.6 6.65 -9.85 8.0 -7.6 8.2 -5.2 8.15 -3.7 6.8 -1.95 5.3 -2.0 3.4 -2.05 1.2 -3.8 -0.15 -4.6 -1.0 -5.7 -1.25 -5.6 -1.5 -5.75 -1.55 L-6.55 -3.35 -6.25 -5.45 12.6 -5.75 12.2 48.1 13.4 179.8 8.6 179.75 -9.85 179.65 -25.3 179.55 -114.6 178.8 -219.85 175.15 Q-217.7 152.3 -215.3 96.8 L-211.05 -10.4 -186.6 -10.05 Q-186.55 -9.75 -186.85 -9.1 L-187.3 -6.9 Q-189.25 -7.05 -190.95 -5.7 -192.85 -4.35 -193.1 -2.3 -193.25 -0.2 -191.75 1.35 -190.05 2.7 -187.7 2.9 -185.25 2.85 -183.45 1.45 -181.45 -0.05 -181.35 -1.9 -181.05 -4.15 -182.75 -5.55 -183.6 -6.4 -184.8 -6.7 L-183.9 -10.0 M-149.75 8.05 L-149.6 7.6 -150.25 7.65 -150.1 8.05 -149.75 8.05" fill="url(#gradient0)" fill-rule="evenodd" stroke="none"/>
  </g>
  <defs>
    <linearGradient gradientTransform="matrix(0.0022, 0.1631, -0.2944, 0.0044, 34.6, 124.7)" gradientUnits="userSpaceOnUse" id="gradient0" spreadMethod="pad" x1="-819.2" x2="819.2">
      <stop offset="0.01568627450980392" stop-color="#efefef"/>
      <stop offset="0.3333333333333333" stop-color="#fefefe"/>
      <stop offset="1.0" stop-color="#cccccc"/>
    </linearGradient>
  </defs>
</svg>
