<?xml version="1.0" encoding="UTF-8" standalone="no"?>
<svg xmlns:xlink="http://www.w3.org/1999/xlink" height="661.8px" width="70.85px" xmlns="http://www.w3.org/2000/svg">
  <g transform="matrix(1.0, 0.0, 0.0, 1.0, 41.9, 271.6)">
    <path d="M4.45 -261.55 L4.4 -261.5 4.4 -261.45 4.45 -261.55 M28.6 -267.75 L28.8 -267.3 28.85 -266.95 28.7 -266.7 28.75 -266.7 27.6 -238.95 Q28.45 -238.5 28.8 -237.85 L28.95 -226.55 28.35 -225.65 28.95 -224.65 Q28.85 -224.0 28.3 -223.5 28.95 -223.05 28.9 -222.5 28.95 -222.0 28.25 -221.45 28.9 -221.0 28.8 -220.4 28.85 -219.85 28.3 -219.3 28.85 -218.85 28.9 -218.3 28.9 -217.7 28.3 -217.15 28.85 -216.7 28.8 -216.1 28.9 -215.5 28.3 -215.05 L28.9 -214.1 Q28.8 -213.5 28.2 -213.05 L28.85 -211.75 Q28.85 -211.35 28.15 -210.8 28.8 -210.3 28.75 -209.75 28.8 -209.2 28.25 -208.8 28.8 -208.3 28.85 -207.65 L28.7 -207.45 28.8 -199.35 28.75 -199.2 Q28.75 -198.45 27.35 -197.6 L27.35 -195.7 Q27.35 -173.0 20.2 -40.15 13.85 77.75 17.25 323.8 L-1.6 383.3 -24.7 325.5 -25.1 325.4 -25.1 324.65 -25.5 323.7 Q-25.25 323.75 -25.1 323.9 -24.35 308.6 -23.55 318.9 L-23.8 293.25 -20.2 -197.25 -21.4 -197.7 Q-23.1 -198.5 -23.15 -199.55 L-23.1 -199.7 -23.0 -207.65 -23.05 -207.9 -22.5 -209.05 Q-22.95 -209.6 -22.95 -210.1 -23.1 -210.6 -22.4 -211.15 -23.0 -211.55 -22.9 -212.15 -23.05 -212.75 -22.35 -213.25 -23.0 -213.7 -22.85 -214.25 -22.95 -214.85 -22.4 -215.4 -22.95 -215.85 -22.95 -216.45 L-22.45 -217.5 Q-22.9 -217.95 -23.0 -218.55 L-22.3 -219.7 Q-22.95 -220.15 -23.0 -220.65 L-22.35 -221.8 Q-22.9 -222.2 -22.9 -222.75 -22.95 -223.35 -22.3 -223.8 -22.95 -224.25 -22.85 -224.85 L-22.3 -226.0 Q-22.9 -226.4 -22.95 -227.0 L-22.9 -227.4 -22.95 -237.35 -22.9 -237.5 -22.8 -237.75 Q-22.7 -238.65 -21.1 -239.4 L-22.0 -267.85 Q-21.35 -269.35 -15.5 -270.25 L-14.65 -270.4 3.35 -271.6 21.35 -270.2 25.35 -269.35 27.25 -268.65 Q28.25 -268.25 28.6 -267.75 M-14.75 -195.25 L-14.85 -195.85 -15.25 -195.9 -15.3 -195.25 -14.75 -195.25" fill="#000000" fill-opacity="0.14901961" fill-rule="evenodd" stroke="none"/>
    <path d="M4.45 -260.95 Q6.15 -259.45 8.45 -259.1 L8.8 -259.05 9.55 -258.7 9.35 -258.65 Q7.35 -253.9 6.75 -248.85 6.8 -247.75 6.35 -246.85 L2.85 -251.45 2.9 -251.55 2.9 -251.6 4.8 -253.75 4.45 -258.15 4.5 -258.4 4.4 -259.9 4.45 -260.95" fill="#e7a0bd" fill-rule="evenodd" stroke="none"/>
    <path d="M-38.5 -238.1 L-39.25 -260.95 Q-38.6 -262.45 -32.75 -263.35 L-31.9 -263.5 -13.9 -264.7 4.1 -263.3 8.1 -262.45 10.0 -261.75 Q11.0 -261.35 11.35 -260.85 L11.55 -260.4 11.6 -260.05 11.45 -259.8 10.05 -258.8 9.35 -258.65 9.55 -258.7 8.8 -259.05 8.45 -259.1 Q6.15 -259.45 4.45 -260.95 L4.05 -260.9 2.45 -260.25 Q-1.5 -258.85 -5.4 -260.25 L-6.45 -258.4 -7.65 -258.15 Q-9.35 -258.05 -10.7 -257.05 L-11.85 -256.3 -12.7 -255.55 -12.6 -255.5 -12.8 -254.65 -12.85 -254.6 -15.3 -254.7 -17.75 -254.75 -17.8 -227.95 -31.7 -229.35 -31.6 -255.95 -35.25 -256.7 Q-37.85 -257.25 -37.85 -257.55 L-38.5 -238.1" fill="#fe89b9" fill-rule="evenodd" stroke="none"/>
    <path d="M-6.45 -258.4 L-5.4 -260.25 Q-1.5 -258.85 2.45 -260.25 L4.05 -260.9 4.45 -260.95 4.4 -259.9 4.5 -258.4 4.45 -258.15 4.8 -253.75 2.9 -251.6 2.9 -251.55 Q-2.6 -252.0 -5.25 -256.75 L-5.6 -257.25 -6.45 -258.4" fill="#651b38" fill-rule="evenodd" stroke="none"/>
    <path d="M11.45 -259.8 L11.5 -259.8 11.45 -257.1 9.55 -252.25 8.65 -229.3 Q6.95 -228.55 3.0 -227.9 L1.6 -227.7 1.75 -245.6 -1.65 -245.7 -8.55 -251.9 -6.5 -251.45 Q-5.15 -251.25 -4.2 -250.25 -1.0 -247.35 3.1 -248.2 L3.9 -247.8 Q5.2 -247.05 6.35 -246.85 6.8 -247.75 6.75 -248.85 7.35 -253.9 9.35 -258.65 L10.05 -258.8 11.45 -259.8" fill="#d15084" fill-rule="evenodd" stroke="none"/>
    <path d="M11.45 -257.1 L10.35 -232.05 10.15 -230.75 10.2 -230.6 10.05 -230.15 Q9.7 -229.75 8.65 -229.3 L9.55 -252.25 11.45 -257.1 M-38.35 -232.5 L-38.5 -238.1 -37.85 -257.55 Q-37.85 -257.25 -35.25 -256.7 L-31.6 -255.95 -31.7 -229.35 -17.8 -227.95 -17.75 -254.75 -15.3 -254.7 -12.85 -254.6 -12.85 -254.55 Q-10.8 -252.9 -8.55 -251.9 L-1.65 -245.7 1.75 -245.6 1.6 -227.7 -14.1 -226.85 Q-24.2 -226.95 -31.2 -228.15 -37.9 -229.25 -38.3 -230.8 L-38.25 -230.95 -38.35 -232.5" fill="#ff6699" fill-rule="evenodd" stroke="none"/>
    <path d="M-12.8 -254.65 L-12.6 -255.5 -12.7 -255.55 -11.85 -256.3 -10.7 -257.05 Q-9.35 -258.05 -7.65 -258.15 L-6.45 -258.4 -5.6 -257.25 -5.25 -256.75 Q-2.6 -252.0 2.9 -251.55 L2.85 -251.45 6.35 -246.85 Q5.2 -247.05 3.9 -247.8 L3.1 -248.2 Q-1.0 -247.35 -4.2 -250.25 -5.15 -251.25 -6.5 -251.45 L-8.55 -251.9 Q-10.8 -252.9 -12.85 -254.55 L-12.8 -254.65" fill="#9b2857" fill-rule="evenodd" stroke="none"/>
    <path d="M11.55 -229.85 L11.7 -219.65 11.1 -218.75 Q7.6 -217.15 5.45 -216.65 L4.05 -216.35 4.1 -226.95 4.05 -227.05 Q10.6 -228.15 11.55 -229.85 M11.45 -200.55 L11.55 -192.45 11.5 -192.3 Q11.5 -191.55 10.1 -190.7 L7.95 -189.75 4.8 -189.5 4.8 -197.55 Q10.95 -198.75 11.45 -200.55" fill="#737373" fill-rule="evenodd" stroke="none"/>
    <path d="M10.35 -232.05 L11.55 -230.95 11.55 -229.85 Q10.6 -228.15 4.05 -227.05 L4.1 -226.95 Q-3.55 -225.55 -14.25 -225.7 -25.0 -225.7 -32.5 -227.2 -39.8 -228.45 -40.2 -230.45 L-40.15 -230.6 -40.05 -230.85 Q-39.95 -231.75 -38.35 -232.5 L-38.25 -230.95 -38.3 -230.8 Q-37.9 -229.25 -31.2 -228.15 -24.2 -226.95 -14.1 -226.85 L1.6 -227.7 3.0 -227.9 Q6.95 -228.55 8.65 -229.3 9.7 -229.75 10.05 -230.15 L10.2 -230.6 10.15 -230.75 10.35 -232.05" fill="#e6e6e6" fill-rule="evenodd" stroke="none"/>
    <path d="M-40.25 -199.5 L-40.25 -200.75 Q-39.75 -199.0 -32.65 -197.6 L-27.3 -196.75 -14.45 -196.0 -1.5 -196.65 3.9 -197.4 4.8 -197.55 4.8 -189.5 0.0 -189.1 -0.75 -189.05 -0.7 -188.95 Q-9.55 -188.3 -18.15 -188.6 L-18.15 -195.05 Q-25.15 -195.25 -32.1 -196.4 L-32.1 -189.95 -32.2 -189.95 -32.4 -190.0 Q-35.15 -190.5 -37.45 -191.5 -38.65 -192.0 -39.7 -192.65 L-40.25 -199.5 M-39.55 -219.1 Q-40.15 -219.5 -40.2 -220.1 L-40.15 -220.5 -40.2 -230.45 Q-39.8 -228.45 -32.5 -227.2 -25.0 -225.7 -14.25 -225.7 -3.55 -225.55 4.1 -226.95 L4.05 -216.35 -1.35 -215.65 -14.35 -215.1 -27.2 -215.75 -32.55 -216.55 -33.9 -216.95 Q-36.25 -217.35 -37.7 -218.0 -39.0 -218.6 -39.55 -219.1 M-31.75 -225.9 L-31.9 -217.6 Q-25.2 -216.45 -17.95 -216.4 L-17.95 -224.75 -31.75 -225.9" fill="#aaaaaa" fill-rule="evenodd" stroke="none"/>
    <path d="M-37.45 -190.35 L-38.65 -190.8 Q-40.35 -191.6 -40.4 -192.65 L-40.35 -192.8 -40.25 -199.5 -39.7 -192.65 Q-38.65 -192.0 -37.45 -191.5 -35.15 -190.5 -32.4 -190.0 L-32.2 -189.95 -32.1 -189.95 -32.1 -196.4 Q-25.15 -195.25 -18.15 -195.05 L-18.15 -188.6 Q-9.55 -188.3 -0.7 -188.95 L-0.75 -189.05 0.0 -189.0 3.9 -188.95 0.95 -188.5 0.95 -188.9 0.9 -188.5 -0.3 -188.3 -3.3 -187.9 Q-8.4 -187.5 -14.4 -187.65 L-18.2 -187.65 -20.2 -187.7 -31.4 -188.8 -32.1 -188.95 -32.5 -189.0 -32.7 -189.05 -37.35 -190.3 -37.35 -191.15 -37.4 -190.35 -37.45 -190.35 M-31.75 -225.9 L-17.95 -224.75 -17.95 -216.4 Q-25.2 -216.45 -31.9 -217.6 L-31.75 -225.9" fill="#ffffff" fill-rule="evenodd" stroke="none"/>
    <path d="M11.1 -218.75 L11.7 -217.75 Q11.6 -217.1 11.05 -216.6 10.45 -216.15 9.2 -215.65 7.65 -215.05 5.4 -214.6 L4.05 -214.25 -1.4 -213.6 -14.35 -212.95 -27.25 -213.65 -32.6 -214.55 -33.9 -214.85 Q-36.2 -215.3 -37.7 -215.85 -39.0 -216.35 -39.55 -216.9 -40.2 -217.35 -40.1 -217.95 L-39.55 -219.1 Q-39.0 -218.6 -37.7 -218.0 -36.25 -217.35 -33.9 -216.95 L-32.55 -216.55 -27.2 -215.75 -14.35 -215.1 -1.35 -215.65 4.05 -216.35 5.45 -216.65 Q7.6 -217.15 11.1 -218.75 M11.0 -214.55 Q11.65 -214.1 11.55 -213.5 11.6 -212.95 11.05 -212.4 10.35 -211.85 9.15 -211.4 L5.35 -210.35 3.95 -210.1 -1.4 -209.35 -14.35 -208.75 -27.25 -209.4 -32.65 -210.25 -34.05 -210.45 -37.8 -211.6 Q-39.0 -212.1 -39.55 -212.8 -40.2 -213.25 -40.25 -213.75 L-39.6 -214.9 Q-38.9 -214.15 -37.75 -213.7 -36.35 -213.2 -34.0 -212.7 L-32.6 -212.5 -27.25 -211.65 -14.25 -210.85 -1.45 -211.35 4.0 -212.25 5.3 -212.45 9.15 -213.5 11.0 -214.55 M11.05 -210.25 Q11.6 -209.8 11.55 -209.2 11.65 -208.6 11.05 -208.15 L9.15 -207.2 Q7.65 -206.6 5.3 -206.1 L3.95 -205.9 -1.4 -205.1 -14.35 -204.45 -27.35 -205.2 -32.6 -206.05 -34.0 -206.35 Q-36.3 -206.8 -37.8 -207.4 L-39.65 -208.5 Q-40.2 -208.95 -40.2 -209.55 L-39.7 -210.6 Q-38.95 -210.05 -37.7 -209.6 -36.3 -208.9 -33.95 -208.4 L-32.65 -208.2 -27.3 -207.3 -14.3 -206.65 -1.4 -207.2 4.0 -208.0 5.4 -208.2 Q7.6 -208.65 9.15 -209.35 L11.05 -210.25 M10.95 -206.15 Q11.6 -205.45 11.6 -204.85 11.6 -204.45 10.9 -203.9 L9.1 -202.9 Q7.15 -202.2 3.95 -201.65 -3.65 -200.2 -14.25 -200.25 -25.05 -200.3 -32.6 -201.75 -36.0 -202.4 -37.7 -203.1 -39.1 -203.6 -39.65 -204.25 -40.25 -204.65 -40.15 -205.25 -40.3 -205.85 -39.6 -206.35 -39.05 -205.75 -37.8 -205.3 L-34.05 -204.15 -32.65 -203.9 Q-25.1 -202.45 -14.35 -202.35 -3.7 -202.3 4.05 -203.7 L5.35 -204.0 9.2 -205.0 Q10.3 -205.45 10.95 -206.15 M11.0 -201.9 Q11.55 -201.4 11.6 -200.75 L11.45 -200.55 Q10.95 -198.75 4.8 -197.55 L3.9 -197.4 -1.5 -196.65 -14.45 -196.0 -27.3 -196.75 -32.65 -197.6 Q-39.75 -199.0 -40.25 -200.75 L-40.3 -201.0 -39.75 -202.15 Q-38.3 -200.85 -32.6 -199.75 -25.15 -198.2 -14.4 -198.1 -3.65 -198.2 3.95 -199.55 9.5 -200.55 11.0 -201.9" fill="#c8c8c8" fill-rule="evenodd" stroke="none"/>
    <path d="M11.05 -216.6 Q11.7 -216.15 11.65 -215.6 11.7 -215.1 11.0 -214.55 L9.15 -213.5 5.3 -212.45 4.0 -212.25 -1.45 -211.35 -14.25 -210.85 -27.25 -211.65 -32.6 -212.5 -34.0 -212.7 Q-36.35 -213.2 -37.75 -213.7 -38.9 -214.15 -39.6 -214.9 -40.15 -215.3 -40.15 -215.85 -40.2 -216.45 -39.55 -216.9 -39.0 -216.35 -37.7 -215.85 -36.2 -215.3 -33.9 -214.85 L-32.6 -214.55 -27.25 -213.65 -14.35 -212.95 -1.4 -213.6 4.05 -214.25 5.4 -214.6 Q7.65 -215.05 9.2 -215.65 10.45 -216.15 11.05 -216.6 M11.05 -212.4 Q11.6 -211.95 11.65 -211.4 11.65 -210.8 11.05 -210.25 L9.15 -209.35 Q7.6 -208.65 5.4 -208.2 L4.0 -208.0 -1.4 -207.2 -14.3 -206.65 -27.3 -207.3 -32.65 -208.2 -33.95 -208.4 Q-36.3 -208.9 -37.7 -209.6 -38.95 -210.05 -39.7 -210.6 -40.15 -211.05 -40.25 -211.65 -40.25 -212.1 -39.55 -212.8 -39.0 -212.1 -37.8 -211.6 L-34.05 -210.45 -32.65 -210.25 -27.25 -209.4 -14.35 -208.75 -1.4 -209.35 3.95 -210.1 5.35 -210.35 9.15 -211.4 Q10.35 -211.85 11.05 -212.4 M11.05 -208.15 L11.65 -207.2 Q11.55 -206.6 10.95 -206.15 10.3 -205.45 9.2 -205.0 L5.35 -204.0 4.05 -203.7 Q-3.7 -202.3 -14.35 -202.35 -25.1 -202.45 -32.65 -203.9 L-34.05 -204.15 -37.8 -205.3 Q-39.05 -205.75 -39.6 -206.35 -40.25 -206.8 -40.1 -207.35 -40.2 -207.95 -39.65 -208.5 L-37.8 -207.4 Q-36.3 -206.8 -34.0 -206.35 L-32.6 -206.05 -27.35 -205.2 -14.35 -204.45 -1.4 -205.1 3.95 -205.9 5.3 -206.1 Q7.65 -206.6 9.15 -207.2 L11.05 -208.15 M10.9 -203.9 Q11.55 -203.4 11.5 -202.85 11.55 -202.3 11.0 -201.9 9.5 -200.55 3.95 -199.55 -3.65 -198.2 -14.4 -198.1 -25.15 -198.2 -32.6 -199.75 -38.3 -200.85 -39.75 -202.15 -40.2 -202.7 -40.2 -203.2 -40.35 -203.7 -39.65 -204.25 -39.1 -203.6 -37.7 -203.1 -36.0 -202.4 -32.6 -201.75 -25.05 -200.3 -14.25 -200.25 -3.65 -200.2 3.95 -201.65 7.15 -202.2 9.1 -202.9 L10.9 -203.9" fill="#959595" fill-rule="evenodd" stroke="none"/>
    <path d="M-29.05 364.65 L-40.9 330.1 Q-39.8 331.05 -36.85 332.35 L-35.45 332.95 -35.05 333.1 Q-30.25 334.85 -24.7 335.05 -30.7 336.8 -37.25 335.2 L-25.5 366.75 Q-27.35 365.9 -29.05 364.65 M-23.4 335.05 L-18.35 335.05 -6.8 334.45 -13.9 367.55 Q-17.05 368.6 -20.1 368.25 L-23.4 335.05" fill="#f0ded2" fill-rule="evenodd" stroke="none"/>
    <path d="M6.0 330.7 L-8.15 364.8 Q-11.05 366.8 -13.9 367.55 L-6.8 334.45 -6.35 334.45 -6.3 333.4 -0.3 332.45 Q3.95 331.75 6.0 330.7" fill="#d2baa4" fill-rule="evenodd" stroke="none"/>
    <path d="M-8.15 364.8 L-18.85 390.2 -29.05 364.65 Q-27.35 365.9 -25.5 366.75 L-19.3 383.3 -20.1 368.25 Q-17.05 368.6 -13.9 367.55 -11.05 366.8 -8.15 364.8" fill="#000000" fill-rule="evenodd" stroke="none"/>
    <path d="M-24.7 335.05 L-23.7 334.7 -23.75 335.05 -23.4 334.75 -23.4 335.05 -20.1 368.25 Q-22.85 367.95 -25.5 366.75 L-37.25 335.2 Q-30.7 336.8 -24.7 335.05" fill="#f7ece6" fill-rule="evenodd" stroke="none"/>
    <path d="M-25.5 366.75 Q-22.85 367.95 -20.1 368.25 L-19.3 383.3 -25.5 366.75" fill="#666666" fill-rule="evenodd" stroke="none"/>
    <path d="M-20.2 -187.7 L-23.05 317.15 -23.65 333.2 Q-30.0 333.35 -35.2 330.5 -35.55 330.25 -35.35 315.8 -35.15 301.3 -34.8 175.4 L-33.35 -180.55 -32.55 -188.35 -32.0 -188.35 -31.3 -182.15 -31.4 -188.35 -31.4 -188.8 -20.2 -187.7 M-35.85 331.45 L-35.8 331.65 -36.05 331.55 -35.85 331.45" fill="#ffffcc" fill-rule="evenodd" stroke="none"/>
    <path d="M0.0 -189.0 L-0.75 -189.05 0.0 -189.1 2.05 -189.2 0.0 -189.0 M-32.1 -188.95 L-31.4 -188.8 -31.4 -188.35 -31.3 -182.15 -32.0 -188.35 -32.1 -188.95" fill="#ffed4a" fill-rule="evenodd" stroke="none"/>
    <path d="M-40.9 330.1 Q-41.85 329.25 -41.35 328.7 L-41.9 327.9 -37.45 -190.35 -37.4 -190.35 -37.35 -191.15 -37.35 -190.3 -32.7 -189.05 -32.5 -189.0 -32.55 -188.35 -33.35 -180.55 -34.8 175.4 Q-35.15 301.3 -35.35 315.8 -35.55 330.25 -35.2 330.5 -30.0 333.35 -23.65 333.2 L-23.05 317.15 -20.2 -187.7 -18.2 -187.65 -14.4 -187.65 Q-8.4 -187.5 -3.3 -187.9 L-0.3 -188.3 0.05 -184.3 -0.15 -180.85 Q-1.95 53.1 -4.6 178.75 -7.25 304.4 -6.0 328.85 L-6.3 333.4 -6.35 334.45 -6.8 334.45 -18.35 335.05 -23.4 335.05 -23.4 334.75 -23.75 335.05 -23.7 334.7 -24.7 335.05 Q-30.25 334.85 -35.05 333.1 L-35.45 332.95 -36.85 332.35 Q-39.8 331.05 -40.9 330.1 M-35.85 331.45 L-36.05 331.55 -35.8 331.65 -35.85 331.45" fill="#ffcc00" fill-rule="evenodd" stroke="none"/>
    <path d="M10.1 -190.7 L10.1 -188.8 Q10.1 -166.1 8.75 -67.8 7.0 52.8 6.75 306.2 L6.7 326.25 6.7 331.65 6.55 327.55 6.0 330.7 Q3.95 331.75 -0.3 332.45 L-6.3 333.4 -6.0 328.85 Q-7.25 304.4 -4.6 178.75 -1.95 53.1 -0.15 -180.85 L0.05 -184.3 -0.3 -188.3 0.9 -188.5 0.95 -188.9 0.95 -188.5 3.9 -188.95 0.0 -189.0 2.05 -189.2 0.0 -189.1 4.8 -189.5 7.95 -189.75 10.1 -190.7" fill="#e6b800" fill-rule="evenodd" stroke="none"/>
  </g>
</svg>
