<?xml version="1.0" encoding="UTF-8" standalone="no"?>
<svg xmlns:xlink="http://www.w3.org/1999/xlink" height="200.8px" width="200.85px" xmlns="http://www.w3.org/2000/svg">
  <g transform="matrix(1.0, 0.0, 0.0, 1.0, 100.45, 111.4)">
    <path d="M99.65 -3.25 Q97.65 28.7 75.65 54.2 56.85 76.2 31.05 84.3 19.95 87.75 7.5 88.6 -33.85 91.7 -65.25 64.85 -80.2 51.95 -88.65 35.9 -95.1 23.8 -97.8 9.8 -99.25 3.4 -99.65 -3.5 -102.75 -44.8 -75.85 -76.1 -48.85 -107.5 -7.5 -110.6 33.75 -113.65 65.05 -86.7 96.5 -59.7 99.6 -18.45 100.15 -10.7 99.65 -3.25" fill="url(#gradient0)" fill-rule="evenodd" stroke="none"/>
    <path d="M22.5 -108.55 Q20.0 -103.4 10.7 -99.9 -4.45 -95.55 -9.6 -92.5 -11.45 -91.4 -12.6 -87.65 -14.4 -81.8 -14.9 -80.65 -19.25 -71.65 -34.6 -71.65 -40.95 -71.65 -50.0 -75.0 -61.25 -79.1 -61.25 -84.6 -61.25 -86.3 -60.15 -90.2 L-59.8 -91.3 Q-37.4 -108.35 -7.5 -110.6 8.2 -111.75 22.5 -108.55 M65.05 -86.7 Q96.5 -59.7 99.6 -18.45 L99.7 -17.4 Q97.15 -13.65 94.6 -12.15 L94.3 -12.0 94.1 -11.9 Q91.95 -10.85 88.1 -10.85 L84.95 -11.2 Q81.2 -11.05 79.55 -8.6 77.9 -6.2 79.15 -3.0 80.4 0.15 80.4 4.8 80.4 16.0 76.65 23.75 71.25 35.0 59.15 35.0 49.2 35.0 43.65 30.45 L36.3 24.7 Q34.5 23.5 32.35 23.05 L28.75 22.6 Q11.8 23.35 5.7 14.4 -0.4 5.45 -0.4 2.5 -0.4 -10.1 10.4 -18.75 22.5 -28.35 43.35 -28.35 L47.2 -27.9 51.2 -27.5 60.2 -29.25 Q68.5 -30.95 68.75 -32.1 L68.75 -34.15 53.3 -31.5 50.4 -31.25 Q43.9 -31.25 36.55 -37.5 32.75 -40.75 30.95 -41.8 27.65 -43.75 24.85 -43.75 22.0 -43.75 19.3 -42.55 16.6 -41.35 17.05 -38.8 17.5 -36.3 19.0 -35.65 L21.5 -35.45 Q22.5 -35.95 23.45 -37.2 24.4 -38.5 25.0 -38.6 L25.75 -38.7 26.25 -38.35 Q26.05 -31.85 19.55 -30.85 13.05 -29.85 8.6 -33.6 4.15 -37.35 4.15 -42.5 4.15 -52.0 12.5 -59.8 L18.25 -64.95 Q20.85 -67.6 20.85 -69.8 20.85 -71.95 18.75 -74.0 16.65 -76.05 16.65 -77.5 16.65 -84.1 27.45 -87.9 35.75 -90.8 55.9 -93.75 60.6 -90.55 65.05 -86.7 M-82.3 -51.25 Q-73.0 -51.25 -67.25 -45.1 L-62.05 -39.65 Q-58.45 -36.45 -53.75 -34.6 -42.3 -30.1 -40.35 -28.7 -35.4 -25.25 -35.4 -18.15 -35.4 -8.7 -43.5 1.1 L-49.1 8.2 Q-51.65 12.15 -51.65 15.85 -51.65 21.85 -48.2 25.6 -44.75 29.3 -34.1 29.45 -23.5 29.6 -8.9 27.55 5.65 25.45 15.85 33.35 25.4 40.75 25.4 59.4 25.4 68.8 17.9 74.2 12.15 78.35 6.0 78.35 -1.1 78.35 -6.25 75.0 -11.25 71.75 -11.25 67.5 -11.25 64.45 -9.15 62.95 -7.4 61.7 -5.65 61.5 L-0.2 61.85 Q3.55 62.35 2.5 65.85 L0.85 65.85 Q-1.25 65.85 -2.1 67.25 -2.35 68.4 -1.1 69.9 0.1 71.4 4.0 70.3 7.9 69.2 8.4 65.6 8.85 62.0 4.4 58.45 -0.05 54.85 -7.95 54.15 -15.85 53.45 -22.45 58.9 -29.05 64.35 -42.05 64.95 -55.05 65.5 -67.5 58.15 -80.0 50.75 -86.05 40.5 L-88.65 35.9 Q-95.1 23.8 -97.8 9.8 -99.25 3.4 -99.65 -3.5 -101.45 -27.65 -93.0 -48.35 L-91.85 -49.6 -91.0 -49.9 Q-87.1 -51.25 -82.3 -51.25" fill="url(#gradient1)" fill-rule="evenodd" stroke="none"/>
    <path d="M-32.1 -62.85 Q-26.4 -57.55 -26.0 -50.75 -25.65 -43.95 -26.5 -44.1 -55.0 -44.15 -58.7 -48.7 -62.4 -53.3 -58.25 -56.3 -54.15 -59.35 -49.65 -58.75 L-47.15 -58.5 -44.0 -57.35 Q-45.55 -62.55 -41.9 -65.2 -37.8 -68.15 -32.1 -62.85" fill="url(#gradient2)" fill-rule="evenodd" stroke="none"/>
    <path d="M99.65 -3.25 Q97.65 28.7 75.65 54.2 56.85 76.2 31.05 84.3 19.95 87.75 7.5 88.6 -33.85 91.7 -65.25 64.85 -80.2 51.95 -88.65 35.9 -95.1 23.8 -97.8 9.8 -99.25 3.4 -99.65 -3.5 -102.75 -44.8 -75.85 -76.1 -48.85 -107.5 -7.5 -110.6 33.75 -113.65 65.05 -86.7 96.5 -59.7 99.6 -18.45 100.15 -10.7 99.65 -3.25 Z" fill="none" stroke="#000000" stroke-linecap="round" stroke-linejoin="round" stroke-width="1.0"/>
  </g>
  <defs>
    <radialGradient cx="0" cy="0" gradientTransform="matrix(0.1941, -0.0146, 0.0146, 0.1941, -52.35, -37.9)" gradientUnits="userSpaceOnUse" id="gradient0" r="819.2" spreadMethod="pad">
      <stop offset="0.0" stop-color="#0095d5"/>
      <stop offset="1.0" stop-color="#0081b9"/>
    </radialGradient>
    <radialGradient cx="0" cy="0" gradientTransform="matrix(0.2065, 0.0, 0.0, 0.2065, -29.15, -53.35)" gradientUnits="userSpaceOnUse" id="gradient1" r="819.2" spreadMethod="pad">
      <stop offset="0.0" stop-color="#72dd07"/>
      <stop offset="1.0" stop-color="#2db421"/>
    </radialGradient>
    <radialGradient cx="0" cy="0" gradientTransform="matrix(0.2065, 0.0, 0.0, 0.2065, -23.35, -50.85)" gradientUnits="userSpaceOnUse" id="gradient2" r="819.2" spreadMethod="pad">
      <stop offset="0.0" stop-color="#72dd07"/>
      <stop offset="1.0" stop-color="#2db421"/>
    </radialGradient>
  </defs>
</svg>
